<svg version="1.1" xmlns="http://www.w3.org/2000/svg" xmlns:xlink="http://www.w3.org/1999/xlink" width="2400" height="1600"><defs/><g transform="scale(2,2)"><g id="background-078058a0"><rect fill="white" stroke="none" x="0" y="0" width="1200" height="800" class="dcg-svg-background"/></g><g id="background-images-078058a0"/><g id="graphpaper-078058a0"><g id="axis-078058a0"><g><g><path fill="none" stroke="rgb(0,0,0)" class="dcg-svg-tickmark" paint-order="fill stroke markers" d="" stroke-opacity="0.9" stroke-miterlimit="2" stroke-width="1.5" stroke-dasharray=""/></g></g></g></g><g id="expressions-078058a0"><g id="sketch-078058a0"><title>Expression 10</title><path fill="#000000" stroke="none" paint-order="stroke fill markers" d="" fill-opacity="0.4"/><g><path fill="none" stroke="#000000" class="dcg-svg-curve" paint-order="fill stroke markers" d=" M 141.88715654730777 681.8980309538708 L 233.04555182537229 657.4722125557963" stroke-linecap="round" stroke-linejoin="round" stroke-miterlimit="10" stroke-dasharray=""/></g><path fill="#000000" stroke="none" paint-order="stroke fill markers" d="" fill-opacity="0.4"/><g><path fill="none" stroke="#000000" class="dcg-svg-curve" paint-order="fill stroke markers" d=" M 233.04555182537229 657.4722125557963 L 324.2039471034368 681.8980309538708" stroke-linecap="round" stroke-linejoin="round" stroke-miterlimit="10" stroke-dasharray=""/></g><path fill="#000000" stroke="none" paint-order="stroke fill markers" d="" fill-opacity="0.4"/><g><path fill="none" stroke="#000000" class="dcg-svg-curve" paint-order="fill stroke markers" d=" M 324.2039471034368 681.8980309538708 L 299.77812870536235 590.7396356758063" stroke-linecap="round" stroke-linejoin="round" stroke-miterlimit="10" stroke-dasharray=""/></g><path fill="#000000" stroke="none" paint-order="stroke fill markers" d="" fill-opacity="0.4"/><g><path fill="none" stroke="#000000" class="dcg-svg-curve" paint-order="fill stroke markers" d=" M 299.77812870536235 590.7396356758063 L 233.04555182537229 657.4722125557963" stroke-linecap="round" stroke-linejoin="round" stroke-miterlimit="10" stroke-dasharray=""/></g><path fill="#000000" stroke="none" paint-order="stroke fill markers" d="" fill-opacity="0.4"/><g><path fill="none" stroke="#000000" class="dcg-svg-curve" paint-order="fill stroke markers" d=" M 299.77812870536235 590.7396356758063 L 233.04555182537229 524.0070587958162" stroke-linecap="round" stroke-linejoin="round" stroke-miterlimit="10" stroke-dasharray=""/></g><path fill="#000000" stroke="none" paint-order="stroke fill markers" d="" fill-opacity="0.4"/><g><path fill="none" stroke="#000000" class="dcg-svg-curve" paint-order="fill stroke markers" d=" M 233.04555182537229 524.0070587958162 L 166.31297494538222 590.7396356758063" stroke-linecap="round" stroke-linejoin="round" stroke-miterlimit="10" stroke-dasharray=""/></g><path fill="#000000" stroke="none" paint-order="stroke fill markers" d="" fill-opacity="0.4"/><g><path fill="none" stroke="#000000" class="dcg-svg-curve" paint-order="fill stroke markers" d=" M 166.31297494538222 590.7396356758063 L 233.04555182537229 657.4722125557963" stroke-linecap="round" stroke-linejoin="round" stroke-miterlimit="10" stroke-dasharray=""/></g><path fill="#000000" stroke="none" paint-order="stroke fill markers" d="" fill-opacity="0.4"/><g><path fill="none" stroke="#000000" class="dcg-svg-curve" paint-order="fill stroke markers" d=" M 141.88715654730777 681.8980309538708 L 166.31297494538222 590.7396356758063" stroke-linecap="round" stroke-linejoin="round" stroke-miterlimit="10" stroke-dasharray=""/></g></g><g id="sketch-078058a0"><title>Expression 11</title><path fill="#000000" stroke="none" paint-order="stroke fill markers" d="" fill-opacity="0.4"/><g><path fill="none" stroke="#000000" class="dcg-svg-curve" paint-order="fill stroke markers" d=" M 506.5207376595659 681.8980309538708 L 597.6791329376304 657.4722125557963" stroke-linecap="round" stroke-linejoin="round" stroke-miterlimit="10" stroke-dasharray=""/></g><path fill="#000000" stroke="none" paint-order="stroke fill markers" d="" fill-opacity="0.4"/><g><path fill="none" stroke="#000000" class="dcg-svg-curve" paint-order="fill stroke markers" d=" M 597.6791329376304 657.4722125557963 L 688.837528215695 681.8980309538708" stroke-linecap="round" stroke-linejoin="round" stroke-miterlimit="10" stroke-dasharray=""/></g><path fill="#000000" stroke="none" paint-order="stroke fill markers" d="" fill-opacity="0.4"/><g><path fill="none" stroke="#000000" class="dcg-svg-curve" paint-order="fill stroke markers" d=" M 688.837528215695 681.8980309538708 L 664.4117098176205 590.7396356758063" stroke-linecap="round" stroke-linejoin="round" stroke-miterlimit="10" stroke-dasharray=""/></g><path fill="#000000" stroke="none" paint-order="stroke fill markers" d="" fill-opacity="0.4"/><g><path fill="none" stroke="#000000" class="dcg-svg-curve" paint-order="fill stroke markers" d=" M 664.4117098176205 590.7396356758063 L 597.6791329376304 657.4722125557963" stroke-linecap="round" stroke-linejoin="round" stroke-miterlimit="10" stroke-dasharray=""/></g><path fill="#000000" stroke="none" paint-order="stroke fill markers" d="" fill-opacity="0.4"/><g><path fill="none" stroke="#000000" class="dcg-svg-curve" paint-order="fill stroke markers" d=" M 664.4117098176205 590.7396356758063 L 573.253314539556 566.3138172777318" stroke-linecap="round" stroke-linejoin="round" stroke-miterlimit="10" stroke-dasharray=""/></g><path fill="#000000" stroke="none" paint-order="stroke fill markers" d="" fill-opacity="0.4"/><g><path fill="none" stroke="#000000" class="dcg-svg-curve" paint-order="fill stroke markers" d=" M 573.253314539556 566.3138172777318 L 597.6791329376304 657.4722125557963" stroke-linecap="round" stroke-linejoin="round" stroke-miterlimit="10" stroke-dasharray=""/></g><path fill="#000000" stroke="none" paint-order="stroke fill markers" d="" fill-opacity="0.4"/><g><path fill="none" stroke="#000000" class="dcg-svg-curve" paint-order="fill stroke markers" d=" M 506.5207376595659 681.8980309538708 L 482.09491926149144 590.7396356758063" stroke-linecap="round" stroke-linejoin="round" stroke-miterlimit="10" stroke-dasharray=""/></g><path fill="#000000" stroke="none" paint-order="stroke fill markers" d="" fill-opacity="0.4"/><g><path fill="none" stroke="#000000" class="dcg-svg-curve" paint-order="fill stroke markers" d=" M 482.09491926149144 590.7396356758063 L 573.253314539556 566.3138172777318" stroke-linecap="round" stroke-linejoin="round" stroke-miterlimit="10" stroke-dasharray=""/></g><path fill="#000000" stroke="none" paint-order="stroke fill markers" d="" fill-opacity="0.4"/><g><path fill="none" stroke="#000000" class="dcg-svg-curve" paint-order="fill stroke markers" d=" M 482.09491926149144 590.7396356758063 L 506.5207376595659 499.58124039774174" stroke-linecap="round" stroke-linejoin="round" stroke-miterlimit="10" stroke-dasharray=""/></g><path fill="#000000" stroke="none" paint-order="stroke fill markers" d="" fill-opacity="0.4"/><g><path fill="none" stroke="#000000" class="dcg-svg-curve" paint-order="fill stroke markers" d=" M 506.5207376595659 499.58124039774174 L 573.253314539556 566.3138172777318" stroke-linecap="round" stroke-linejoin="round" stroke-miterlimit="10" stroke-dasharray=""/></g><path fill="#000000" stroke="none" paint-order="stroke fill markers" d="" fill-opacity="0.4"/><g><path fill="none" stroke="#000000" class="dcg-svg-curve" paint-order="fill stroke markers" d=" M 506.5207376595659 499.58124039774174 L 597.6791329376304 475.1554219996673" stroke-linecap="round" stroke-linejoin="round" stroke-miterlimit="10" stroke-dasharray=""/></g><path fill="#000000" stroke="none" paint-order="stroke fill markers" d="" fill-opacity="0.4"/><g><path fill="none" stroke="#000000" class="dcg-svg-curve" paint-order="fill stroke markers" d=" M 597.6791329376304 475.1554219996673 L 573.253314539556 566.3138172777318" stroke-linecap="round" stroke-linejoin="round" stroke-miterlimit="10" stroke-dasharray=""/></g><path fill="#000000" stroke="none" paint-order="stroke fill markers" d="" fill-opacity="0.4"/><g><path fill="none" stroke="#000000" class="dcg-svg-curve" paint-order="fill stroke markers" d=" M 597.6791329376304 475.1554219996673 L 688.837528215695 499.58124039774174" stroke-linecap="round" stroke-linejoin="round" stroke-miterlimit="10" stroke-dasharray=""/></g><path fill="#000000" stroke="none" paint-order="stroke fill markers" d="" fill-opacity="0.4"/><g><path fill="none" stroke="#000000" class="dcg-svg-curve" paint-order="fill stroke markers" d=" M 688.837528215695 499.58124039774174 L 664.4117098176205 590.7396356758063" stroke-linecap="round" stroke-linejoin="round" stroke-miterlimit="10" stroke-dasharray=""/></g></g><g id="sketch-078058a0"><title>Expression 12</title><path fill="#000000" stroke="none" paint-order="stroke fill markers" d="" fill-opacity="0.4"/><g><path fill="none" stroke="#000000" class="dcg-svg-curve" paint-order="fill stroke markers" d=" M 871.154318771824 681.8980309538708 L 962.3127140498885 657.4722125557963" stroke-linecap="round" stroke-linejoin="round" stroke-miterlimit="10" stroke-dasharray=""/></g><path fill="#000000" stroke="none" paint-order="stroke fill markers" d="" fill-opacity="0.4"/><g><path fill="none" stroke="#000000" class="dcg-svg-curve" paint-order="fill stroke markers" d=" M 962.3127140498885 657.4722125557963 L 1053.471109327953 681.8980309538708" stroke-linecap="round" stroke-linejoin="round" stroke-miterlimit="10" stroke-dasharray=""/></g><path fill="#000000" stroke="none" paint-order="stroke fill markers" d="" fill-opacity="0.4"/><g><path fill="none" stroke="#000000" class="dcg-svg-curve" paint-order="fill stroke markers" d=" M 1053.471109327953 681.8980309538708 L 1029.0452909298785 590.7396356758063" stroke-linecap="round" stroke-linejoin="round" stroke-miterlimit="10" stroke-dasharray=""/></g><path fill="#000000" stroke="none" paint-order="stroke fill markers" d="" fill-opacity="0.4"/><g><path fill="none" stroke="#000000" class="dcg-svg-curve" paint-order="fill stroke markers" d=" M 1029.0452909298785 590.7396356758063 L 962.3127140498885 657.4722125557963" stroke-linecap="round" stroke-linejoin="round" stroke-miterlimit="10" stroke-dasharray=""/></g><path fill="#000000" stroke="none" paint-order="stroke fill markers" d="" fill-opacity="0.4"/><g><path fill="none" stroke="#000000" class="dcg-svg-curve" paint-order="fill stroke markers" d=" M 1029.0452909298785 590.7396356758063 L 962.3127140498885 524.0070587958162" stroke-linecap="round" stroke-linejoin="round" stroke-miterlimit="10" stroke-dasharray=""/></g><path fill="#000000" stroke="none" paint-order="stroke fill markers" d="" fill-opacity="0.4"/><g><path fill="none" stroke="#000000" class="dcg-svg-curve" paint-order="fill stroke markers" d=" M 962.3127140498885 524.0070587958162 L 895.5801371698985 590.7396356758063" stroke-linecap="round" stroke-linejoin="round" stroke-miterlimit="10" stroke-dasharray=""/></g><path fill="#000000" stroke="none" paint-order="stroke fill markers" d="" fill-opacity="0.4"/><g><path fill="none" stroke="#000000" class="dcg-svg-curve" paint-order="fill stroke markers" d=" M 895.5801371698985 590.7396356758063 L 962.3127140498885 657.4722125557963" stroke-linecap="round" stroke-linejoin="round" stroke-miterlimit="10" stroke-dasharray=""/></g><path fill="#000000" stroke="none" paint-order="stroke fill markers" d="" fill-opacity="0.4"/><g><path fill="none" stroke="#000000" class="dcg-svg-curve" paint-order="fill stroke markers" d=" M 871.154318771824 681.8980309538708 L 895.5801371698985 590.7396356758063" stroke-linecap="round" stroke-linejoin="round" stroke-miterlimit="10" stroke-dasharray=""/></g><path fill="#000000" stroke="none" paint-order="stroke fill markers" d="" fill-opacity="0.4"/><g><path fill="none" stroke="#000000" class="dcg-svg-curve" paint-order="fill stroke markers" d=" M 871.154318771824 499.58124039774174 L 895.5801371698985 590.7396356758063" stroke-linecap="round" stroke-linejoin="round" stroke-miterlimit="10" stroke-dasharray=""/></g><path fill="#000000" stroke="none" paint-order="stroke fill markers" d="" fill-opacity="0.4"/><g><path fill="none" stroke="#000000" class="dcg-svg-curve" paint-order="fill stroke markers" d=" M 871.154318771824 499.58124039774174 L 962.3127140498885 524.0070587958162" stroke-linecap="round" stroke-linejoin="round" stroke-miterlimit="10" stroke-dasharray=""/></g><path fill="#000000" stroke="none" paint-order="stroke fill markers" d="" fill-opacity="0.4"/><g><path fill="none" stroke="#000000" class="dcg-svg-curve" paint-order="fill stroke markers" d=" M 1053.471109327953 499.58124039774174 L 962.3127140498885 524.0070587958162" stroke-linecap="round" stroke-linejoin="round" stroke-miterlimit="10" stroke-dasharray=""/></g><path fill="#000000" stroke="none" paint-order="stroke fill markers" d="" fill-opacity="0.4"/><g><path fill="none" stroke="#000000" class="dcg-svg-curve" paint-order="fill stroke markers" d=" M 1053.471109327953 499.58124039774174 L 1029.0452909298785 590.7396356758063" stroke-linecap="round" stroke-linejoin="round" stroke-miterlimit="10" stroke-dasharray=""/></g></g><g id="sketch-078058a0"><title>Expression 90</title><path fill="none" stroke="#000000" class="dcg-svg-point" paint-order="fill stroke markers" d=" M 141.78715654730777 317.1644498416126 L 141.78715654730777 317.36444984161267 L 141.98715654730776 317.36444984161267 L 141.98715654730776 317.1644498416126" stroke-linecap="round" stroke-linejoin="round" stroke-miterlimit="10" stroke-width="3" stroke-dasharray=""/></g><g id="sketch-078058a0"><title>Expression 91</title><path fill="none" stroke="#000000" class="dcg-svg-point" paint-order="fill stroke markers" d=" M 324.1039471034368 317.1644498416126 L 324.1039471034368 317.36444984161267 L 324.3039471034368 317.36444984161267 L 324.3039471034368 317.1644498416126" stroke-linecap="round" stroke-linejoin="round" stroke-miterlimit="10" stroke-width="3" stroke-dasharray=""/></g><g id="sketch-078058a0"><title>Expression 92</title><path fill="none" stroke="#000000" class="dcg-svg-point" paint-order="fill stroke markers" d=" M 232.9455518253723 159.273477683558 L 232.9455518253723 159.473477683558 L 233.14555182537228 159.473477683558 L 233.14555182537228 159.273477683558" stroke-linecap="round" stroke-linejoin="round" stroke-miterlimit="10" stroke-width="3" stroke-dasharray=""/></g><g id="sketch-078058a0"><title>Expression 93</title><path fill="none" stroke="#000000" class="dcg-svg-point" paint-order="fill stroke markers" d=" M 506.4207376595659 317.1644498416126 L 506.4207376595659 317.36444984161267 L 506.6207376595659 317.36444984161267 L 506.6207376595659 317.1644498416126" stroke-linecap="round" stroke-linejoin="round" stroke-miterlimit="10" stroke-width="3" stroke-dasharray=""/></g><g id="sketch-078058a0"><title>Expression 94</title><path fill="none" stroke="#000000" class="dcg-svg-point" paint-order="fill stroke markers" d=" M 688.737528215695 317.1644498416126 L 688.737528215695 317.36444984161267 L 688.937528215695 317.36444984161267 L 688.937528215695 317.1644498416126" stroke-linecap="round" stroke-linejoin="round" stroke-miterlimit="10" stroke-width="3" stroke-dasharray=""/></g><g id="sketch-078058a0"><title>Expression 95</title><path fill="none" stroke="#000000" class="dcg-svg-point" paint-order="fill stroke markers" d=" M 506.4207376595659 134.8476592854835 L 506.4207376595659 135.0476592854835 L 506.6207376595659 135.0476592854835 L 506.6207376595659 134.8476592854835" stroke-linecap="round" stroke-linejoin="round" stroke-miterlimit="10" stroke-width="3" stroke-dasharray=""/></g><g id="sketch-078058a0"><title>Expression 96</title><path fill="none" stroke="#000000" class="dcg-svg-point" paint-order="fill stroke markers" d=" M 688.737528215695 134.8476592854835 L 688.737528215695 135.0476592854835 L 688.937528215695 135.0476592854835 L 688.937528215695 134.8476592854835" stroke-linecap="round" stroke-linejoin="round" stroke-miterlimit="10" stroke-width="3" stroke-dasharray=""/></g><g id="sketch-078058a0"><title>Expression 97</title><path fill="none" stroke="#000000" class="dcg-svg-point" paint-order="fill stroke markers" d=" M 871.054318771824 317.1644498416126 L 871.054318771824 317.36444984161267 L 871.254318771824 317.36444984161267 L 871.254318771824 317.1644498416126" stroke-linecap="round" stroke-linejoin="round" stroke-miterlimit="10" stroke-width="3" stroke-dasharray=""/></g><g id="sketch-078058a0"><title>Expression 98</title><path fill="none" stroke="#000000" class="dcg-svg-point" paint-order="fill stroke markers" d=" M 1053.371109327953 317.1644498416126 L 1053.371109327953 317.36444984161267 L 1053.5711093279529 317.36444984161267 L 1053.5711093279529 317.1644498416126" stroke-linecap="round" stroke-linejoin="round" stroke-miterlimit="10" stroke-width="3" stroke-dasharray=""/></g><g id="sketch-078058a0"><title>Expression 99</title><path fill="none" stroke="#000000" class="dcg-svg-point" paint-order="fill stroke markers" d=" M 871.054318771824 134.8476592854835 L 871.054318771824 135.0476592854835 L 871.254318771824 135.0476592854835 L 871.254318771824 134.8476592854835" stroke-linecap="round" stroke-linejoin="round" stroke-miterlimit="10" stroke-width="3" stroke-dasharray=""/></g><g id="sketch-078058a0"><title>Expression 100</title><path fill="none" stroke="#000000" class="dcg-svg-point" paint-order="fill stroke markers" d=" M 1053.371109327953 134.8476592854835 L 1053.371109327953 135.0476592854835 L 1053.5711093279529 135.0476592854835 L 1053.5711093279529 134.8476592854835" stroke-linecap="round" stroke-linejoin="round" stroke-miterlimit="10" stroke-width="3" stroke-dasharray=""/></g><g id="sketch-078058a0"><title>Expression 102</title><path fill="#000000" stroke="none" paint-order="stroke fill markers" d="" fill-opacity="0.4"/><g><path fill="none" stroke="#000000" class="dcg-svg-curve" paint-order="fill stroke markers" d=" M 141.88715654730777 317.26444984161265 L 141.96443061341088 317.2437443180044 M 148.1463559016609 315.5873024293483 L 148.22362996776403 315.5665969057401 M 154.40555525601405 313.910155017084 L 154.48282932211717 313.88944949347575 M 160.6647546103672 312.23300760481965 L 160.7420286764703 312.2123020812114 M 166.92395396472034 310.5558601925553 L 167.00122803082346 310.5351546689471 M 173.1831533190735 308.878712780291 L 173.26042738517663 308.85800725668275 M 179.44235267342668 307.20156536802665 L 179.5196267395298 307.1808598444184 M 185.70155202777985 305.5244179557623 L 185.77882609388297 305.5037124321541 M 191.96075138213303 303.847270543498 L 192.03802544823614 303.82656501988976 M 198.2199507364862 302.17012313123365 L 198.2972248025893 302.1494176076254 M 204.47915009083937 300.4929757189693 L 204.55642415694248 300.4722701953611 M 210.7383494451925 298.815828306705 L 210.81562351129563 298.79512278309676 M 216.99754879954568 297.13868089444065 L 217.0748228656488 297.1179753708324 M 223.25674815389885 295.4615334821763 L 223.33402222000197 295.4408279585681 M 229.51594750825203 293.784386069912 L 229.59322157435514 293.76368054630376" stroke-linecap="round" stroke-linejoin="round" stroke-miterlimit="10" stroke-width="4" stroke-opacity="0.5" stroke-dasharray=""/></g><path fill="#000000" stroke="none" paint-order="stroke fill markers" d="" fill-opacity="0.4"/><g><path fill="none" stroke="#000000" class="dcg-svg-curve" paint-order="fill stroke markers" d=" M 233.04555182537229 292.8386314435382 L 233.1228258914754 292.8593369671464 M 239.30475117972543 294.5157788558025 L 239.38202524582854 294.53648437941075 M 245.56395053407857 296.19292626806686 L 245.6412246001817 296.2136317916751 M 251.82314988843171 297.8700736803312 L 251.90042395453483 297.8907792039394 M 258.08234924278486 299.5472210925955 L 258.159623308888 299.56792661620375 M 264.34154859713806 301.22436850485985 L 264.4188226632412 301.2450740284681 M 270.60074795149126 302.9015159171242 L 270.6780220175944 302.9222214407324 M 276.85994730584446 304.5786633293885 L 276.9372213719476 304.59936885299675 M 283.11914666019766 306.25581074165285 L 283.1964207263008 306.2765162652611 M 289.3783460145508 307.9329581539172 L 289.45562008065394 307.9536636775254 M 295.63754536890394 309.6101055661815 L 295.7148194350071 309.63081108978974 M 301.8967447232571 311.28725297844585 L 301.97401878936023 311.3079585020541 M 308.15594407761023 312.9644003907102 L 308.2332181437134 312.9851059143184 M 314.4151434319634 314.6415478029745 L 314.4924174980665 314.66225332658274 M 320.6743427863166 316.31869521523885 L 320.7516168524197 316.3394007388471" stroke-linecap="round" stroke-linejoin="round" stroke-miterlimit="10" stroke-width="4" stroke-opacity="0.5" stroke-dasharray=""/></g><path fill="#000000" stroke="none" paint-order="stroke fill markers" d="" fill-opacity="0.4"/><g><path fill="none" stroke="#000000" class="dcg-svg-curve" paint-order="fill stroke markers" d=" M 233.04555182537229 159.373477683558 L 233.1021203678672 159.43004622605292 M 237.6276037674611 163.95552962564682 L 237.684172309956 164.01209816814173 M 242.2096557095499 168.53758156773563 L 242.26622425204482 168.59415011023054 M 246.79170765163872 173.11963350982447 L 246.84827619413363 173.17620205231938 M 251.37375959372753 177.7016854519133 L 251.43032813622244 177.75825399440822 M 255.95581153581637 182.28373739400215 L 256.0123800783113 182.34030593649706 M 260.5378634779052 186.86578933609098 L 260.5944320204001 186.9223578785859 M 265.119915419994 191.4478412781798 L 265.17648396248893 191.5044098206747 M 269.7019673620828 196.02989322026863 L 269.75853590457774 196.08646176276355 M 274.28401930417164 200.61194516235747 L 274.34058784666655 200.6685137048524 M 278.86607124626045 205.19399710444628 L 278.92263978875536 205.2505656469412 M 283.4481231883493 209.77604904653512 L 283.50469173084423 209.83261758903004 M 288.0301751304381 214.35810098862396 L 288.08674367293304 214.41466953111888 M 292.612227072527 218.9401529307128 L 292.6687956150219 218.9967214732077 M 297.19427901461586 223.5222048728016 L 297.2508475571108 223.57877341529652" stroke-linecap="round" stroke-linejoin="round" stroke-miterlimit="10" stroke-width="4" stroke-opacity="0.5" stroke-dasharray=""/></g><path fill="#000000" stroke="none" paint-order="stroke fill markers" d="" fill-opacity="0.4"/><g><path fill="none" stroke="#000000" class="dcg-svg-curve" paint-order="fill stroke markers" d=" M 299.77812870536235 226.10605456354813 L 299.7988342289706 226.18332862965124 M 301.4552761176267 232.36525391790127 L 301.4759816412349 232.44252798400439 M 303.132423529891 238.6244532722544 L 303.15312905349924 238.70172733835753 M 304.80957094215535 244.88365262660756 L 304.8302764657636 244.96092669271067 M 306.4867183544197 251.1428519809607 L 306.5074238780279 251.22012604706381 M 308.163865766684 257.40205133531384 L 308.18457129029224 257.479325401417 M 309.84101317894834 263.66125068966704 L 309.8617187025566 263.7385247557702 M 311.5181605912127 269.92045004402024 L 311.5388661148209 269.9977241101234 M 313.195308003477 276.17964939837344 L 313.21601352708524 276.2569234644766 M 314.87245541574134 282.43884875272664 L 314.89316093934957 282.5161228188298 M 316.5496028280057 288.6980481070798 L 316.5703083516139 288.77532217318293 M 318.22675024027 294.9572474614329 L 318.24745576387824 295.03452152753607 M 319.90389765253434 301.21644681578607 L 319.92460317614257 301.2937208818892 M 321.5810450647987 307.4756461701392 L 321.6017505884069 307.55292023624236 M 323.258192477063 313.7348455244924 L 323.27889800067123 313.81211959059556" stroke-linecap="round" stroke-linejoin="round" stroke-miterlimit="10" stroke-width="4" stroke-opacity="0.5" stroke-dasharray=""/></g><path fill="#000000" stroke="none" paint-order="stroke fill markers" d="" fill-opacity="0.4"/><g><path fill="none" stroke="#000000" class="dcg-svg-curve" paint-order="fill stroke markers" d=" M 141.88715654730777 317.26444984161265 L 141.90786207091597 317.1871757755095 M 143.5643039595721 311.00525048725945 L 143.5850094831803 310.9279764211563 M 145.24145137183643 304.74605113290625 L 145.26215689544463 304.6687770668031 M 146.91859878410077 298.48685177855305 L 146.93930430770897 298.4095777124499 M 148.5957461963651 292.2276524241999 L 148.6164517199733 292.15037835809676 M 150.27289360862943 285.96845306984676 L 150.29359913223763 285.8911790037436 M 151.95004102089376 279.70925371549356 L 151.97074654450196 279.6319796493904 M 153.6271884331581 273.4500543611404 L 153.6478939567663 273.3727802950373 M 155.30433584542243 267.1908550067873 L 155.32504136903063 267.11358094068413 M 156.98148325768676 260.93165565243413 L 157.00218878129496 260.854381586331 M 158.6586306699511 254.67245629808096 L 158.6793361935593 254.59518223197784 M 160.33577808221543 248.41325694372782 L 160.35648360582363 248.3359828776247 M 162.01292549447976 242.15405758937467 L 162.03363101808796 242.07678352327156 M 163.6900729067441 235.89485823502153 L 163.7107784303523 235.81758416891842 M 165.36722031900842 229.6356588806684 L 165.38792584261662 229.55838481456527" stroke-linecap="round" stroke-linejoin="round" stroke-miterlimit="10" stroke-width="4" stroke-opacity="0.5" stroke-dasharray=""/></g><path fill="#000000" stroke="none" paint-order="stroke fill markers" d="" fill-opacity="0.4"/><g><path fill="none" stroke="#000000" class="dcg-svg-curve" paint-order="fill stroke markers" d=" M 166.31297494538222 226.10605456354813 L 166.36954348787714 226.0494860210532 M 170.89502688747103 221.52400262145932 L 170.95159542996595 221.4674340789644 M 175.47707882955984 216.9419506793705 L 175.53364737205476 216.8853821368756 M 180.05913077164865 212.35989873728167 L 180.11569931414357 212.30333019478675 M 184.64118271373746 207.77784679519283 L 184.69775125623238 207.7212782526979 M 189.2232346558263 203.195794853104 L 189.27980319832122 203.13922631060908 M 193.80528659791514 198.61374291101515 L 193.86185514041006 198.55717436852024 M 198.38733854000395 194.03169096892634 L 198.44390708249887 193.97512242643143 M 202.9693904820928 189.4496390268375 L 203.0259590245877 189.3930704843426 M 207.55144242418163 184.86758708474866 L 207.60801096667655 184.81101854225375 M 212.13349436627044 180.28553514265985 L 212.19006290876536 180.22896660016494 M 216.71554630835928 175.70348320057101 L 216.7721148508542 175.6469146580761 M 221.29759825044812 171.12143125848218 L 221.35416679294303 171.06486271598726 M 225.87965019253696 166.53937931639334 L 225.93621873503187 166.48281077389842 M 230.46170213462577 161.95732737430453 L 230.51827067712068 161.9007588318096" stroke-linecap="round" stroke-linejoin="round" stroke-miterlimit="10" stroke-width="4" stroke-opacity="0.5" stroke-dasharray=""/></g><path fill="#000000" stroke="none" paint-order="stroke fill markers" d="" fill-opacity="0.4"/><g><path fill="none" stroke="#000000" class="dcg-svg-curve" paint-order="fill stroke markers" d=" M 506.5207376595659 317.26444984161265 L 506.59801172566904 317.2437443180044 M 512.779937013919 315.5873024293483 L 512.8572110800221 315.5665969057401 M 519.0391363682721 313.910155017084 L 519.1164104343752 313.88944949347575 M 525.2983357226252 312.23300760481965 L 525.3756097887283 312.2123020812114 M 531.5575350769783 310.5558601925553 L 531.6348091430814 310.5351546689471 M 537.8167344313315 308.8787127802909 L 537.8940084974346 308.8580072566827 M 544.0759337856847 307.2015653680266 L 544.1532078517878 307.18085984441836 M 550.3351331400379 305.52441795576226 L 550.412407206141 305.50371243215403 M 556.5943324943911 303.8472705434979 L 556.6716065604942 303.8265650198897 M 562.8535318487443 302.1701231312336 L 562.9308059148474 302.14941760762537 M 569.1127312030974 300.49297571896926 L 569.1900052692005 300.47227019536103 M 575.3719305574506 298.81582830670493 L 575.4492046235537 298.7951227830967 M 581.6311299118038 297.1386808944406 L 581.7084039779069 297.11797537083237 M 587.890329266157 295.46153348217626 L 587.9676033322601 295.44082795856804 M 594.1495286205102 293.78438606991193 L 594.2268026866133 293.7636805463037" stroke-linecap="round" stroke-linejoin="round" stroke-miterlimit="10" stroke-width="4" stroke-opacity="0.5" stroke-dasharray=""/></g><path fill="#000000" stroke="none" paint-order="stroke fill markers" d="" fill-opacity="0.4"/><g><path fill="none" stroke="#000000" class="dcg-svg-curve" paint-order="fill stroke markers" d=" M 597.6791329376304 292.8386314435382 L 597.7564070037334 292.8593369671464 M 603.9383322919834 294.5157788558025 L 604.0156063580865 294.53648437941075 M 610.1975316463365 296.19292626806686 L 610.2748057124396 296.2136317916751 M 616.4567310006896 297.8700736803312 L 616.5340050667927 297.8907792039394 M 622.7159303550428 299.5472210925955 L 622.7932044211459 299.56792661620375 M 628.975129709396 301.22436850485985 L 629.0524037754991 301.2450740284681 M 635.2343290637492 302.9015159171242 L 635.3116031298523 302.9222214407324 M 641.4935284181023 304.5786633293885 L 641.5708024842054 304.59936885299675 M 647.7527277724555 306.25581074165285 L 647.8300018385586 306.2765162652611 M 654.0119271268087 307.9329581539172 L 654.0892011929118 307.9536636775254 M 660.2711264811619 309.6101055661815 L 660.348400547265 309.63081108978974 M 666.5303258355151 311.28725297844585 L 666.6075999016182 311.3079585020541 M 672.7895251898683 312.9644003907102 L 672.8667992559714 312.9851059143184 M 679.0487245442214 314.6415478029745 L 679.1259986103245 314.66225332658274 M 685.3079238985746 316.31869521523885 L 685.3851979646777 316.3394007388471" stroke-linecap="round" stroke-linejoin="round" stroke-miterlimit="10" stroke-width="4" stroke-opacity="0.5" stroke-dasharray=""/></g><path fill="#000000" stroke="none" paint-order="stroke fill markers" d="" fill-opacity="0.4"/><g><path fill="none" stroke="#000000" class="dcg-svg-curve" paint-order="fill stroke markers" d=" M 688.837528215695 317.26444984161265 L 688.8168226920868 317.1871757755095 M 687.1603808034307 311.00525048725945 L 687.1396752798225 310.9279764211563 M 685.4832333911664 304.74605113290625 L 685.4625278675583 304.6687770668031 M 683.8060859789022 298.48685177855305 L 683.785380455294 298.4095777124499 M 682.1289385666379 292.2276524241999 L 682.1082330430297 292.15037835809676 M 680.4517911543735 285.96845306984676 L 680.4310856307653 285.8911790037436 M 678.7746437421092 279.70925371549356 L 678.753938218501 279.6319796493904 M 677.0974963298448 273.4500543611404 L 677.0767908062367 273.3727802950373 M 675.4203489175804 267.1908550067873 L 675.3996433939723 267.11358094068413 M 673.743201505316 260.93165565243413 L 673.7224959817079 260.854381586331 M 672.0660540930518 254.67245629808096 L 672.0453485694436 254.59518223197784 M 670.3889066807874 248.41325694372782 L 670.3682011571792 248.3359828776247 M 668.711759268523 242.15405758937467 L 668.6910537449148 242.07678352327156 M 667.0346118562586 235.89485823502153 L 667.0139063326504 235.81758416891842 M 665.3574644439942 229.6356588806684 L 665.336758920386 229.55838481456527" stroke-linecap="round" stroke-linejoin="round" stroke-miterlimit="10" stroke-width="4" stroke-opacity="0.5" stroke-dasharray=""/></g><path fill="#000000" stroke="none" paint-order="stroke fill markers" d="" fill-opacity="0.4"/><g><path fill="none" stroke="#000000" class="dcg-svg-curve" paint-order="fill stroke markers" d=" M 664.4117098176205 226.10605456354813 L 664.4324153412286 226.028780497445 M 666.0888572298848 219.84685520919498 L 666.1095627534929 219.76958114309187 M 667.766004642149 213.58765585484184 L 667.7867101657572 213.51038178873873 M 669.4431520544133 207.3284565004887 L 669.4638575780215 207.25118243438558 M 671.1202994666776 201.06925714613553 L 671.1410049902858 200.9919830800324 M 672.7974468789419 194.81005779178236 L 672.81815240255 194.73278372567924 M 674.4745942912062 188.55085843742918 L 674.4952998148144 188.47358437132607 M 676.1517417034706 182.291659083076 L 676.1724472270788 182.2143850169729 M 677.828889115735 176.03245972872287 L 677.8495946393432 175.95518566261975 M 679.5060365279993 169.7732603743697 L 679.5267420516075 169.69598630826658 M 681.1831839402637 163.51406102001653 L 681.2038894638719 163.4367869539134 M 682.8603313525281 157.25486166566336 L 682.8810368761362 157.17758759956024 M 684.5374787647925 150.9956623113102 L 684.5581842884006 150.9183882452071 M 686.2146261770569 144.73646295695704 L 686.235331700665 144.65918889085393 M 687.8917735893211 138.47726360260387 L 687.9124791129293 138.39998953650075" stroke-linecap="round" stroke-linejoin="round" stroke-miterlimit="10" stroke-width="4" stroke-opacity="0.5" stroke-dasharray=""/></g><path fill="#000000" stroke="none" paint-order="stroke fill markers" d="" fill-opacity="0.4"/><g><path fill="none" stroke="#000000" class="dcg-svg-curve" paint-order="fill stroke markers" d=" M 506.5207376595659 317.26444984161265 L 506.50003213595767 317.1871757755095 M 504.84359024730156 311.00525048725945 L 504.82288472369333 310.9279764211563 M 503.16644283503723 304.74605113290625 L 503.145737311429 304.6687770668031 M 501.4892954227729 298.48685177855305 L 501.46858989916467 298.4095777124499 M 499.81214801050857 292.2276524241999 L 499.79144248690034 292.15037835809676 M 498.13500059824423 285.96845306984676 L 498.114295074636 285.8911790037436 M 496.4578531859799 279.70925371549356 L 496.4371476623717 279.6319796493904 M 494.78070577371557 273.4500543611404 L 494.76000025010734 273.3727802950373 M 493.10355836145123 267.1908550067873 L 493.082852837843 267.11358094068413 M 491.4264109491869 260.93165565243413 L 491.4057054255787 260.854381586331 M 489.74926353692257 254.67245629808096 L 489.72855801331434 254.59518223197784 M 488.07211612465824 248.41325694372782 L 488.05141060105 248.3359828776247 M 486.3949687123939 242.15405758937467 L 486.3742631887857 242.07678352327156 M 484.7178213001296 235.89485823502153 L 484.69711577652134 235.81758416891842 M 483.04067388786524 229.6356588806684 L 483.019968364257 229.55838481456527" stroke-linecap="round" stroke-linejoin="round" stroke-miterlimit="10" stroke-width="4" stroke-opacity="0.5" stroke-dasharray=""/></g><path fill="#000000" stroke="none" paint-order="stroke fill markers" d="" fill-opacity="0.4"/><g><path fill="none" stroke="#000000" class="dcg-svg-curve" paint-order="fill stroke markers" d=" M 482.09491926149144 226.10605456354813 L 482.11562478509967 226.028780497445 M 483.7720666737558 219.84685520919498 L 483.792772197364 219.76958114309187 M 485.4492140860201 213.58765585484184 L 485.46991960962833 213.51038178873873 M 487.12636149828444 207.3284565004887 L 487.14706702189267 207.25118243438558 M 488.80350891054877 201.06925714613553 L 488.824214434157 200.9919830800324 M 490.4806563228131 194.81005779178236 L 490.50136184642133 194.73278372567924 M 492.15780373507744 188.55085843742918 L 492.17850925868566 188.47358437132607 M 493.83495114734177 182.291659083076 L 493.85565667095 182.2143850169729 M 495.5120985596061 176.03245972872287 L 495.53280408321433 175.95518566261975 M 497.18924597187043 169.7732603743697 L 497.20995149547866 169.69598630826658 M 498.86639338413477 163.51406102001653 L 498.887098907743 163.4367869539134 M 500.5435407963991 157.25486166566336 L 500.5642463200073 157.17758759956024 M 502.22068820866343 150.9956623113102 L 502.24139373227166 150.9183882452071 M 503.89783562092776 144.73646295695704 L 503.918541144536 144.65918889085393 M 505.5749830331921 138.47726360260387 L 505.5956885568003 138.39998953650075" stroke-linecap="round" stroke-linejoin="round" stroke-miterlimit="10" stroke-width="4" stroke-opacity="0.5" stroke-dasharray=""/></g><path fill="#000000" stroke="none" paint-order="stroke fill markers" d="" fill-opacity="0.4"/><g><path fill="none" stroke="#000000" class="dcg-svg-curve" paint-order="fill stroke markers" d=" M 506.5207376595659 134.9476592854835 L 506.59801172566904 134.9269537618753 M 512.779937013919 133.27051187321916 L 512.8572110800221 133.24980634961096 M 519.0391363682721 131.59336446095483 L 519.1164104343752 131.57265893734663 M 525.2983357226252 129.9162170486905 L 525.3756097887283 129.8955115250823 M 531.5575350769783 128.23906963642617 L 531.6348091430814 128.21836411281797 M 537.8167344313315 126.56192222416183 L 537.8940084974346 126.54121670055363 M 544.0759337856847 124.8847748118975 L 544.1532078517878 124.8640692882893 M 550.3351331400379 123.20762739963317 L 550.412407206141 123.18692187602497 M 556.5943324943911 121.53047998736884 L 556.6716065604942 121.50977446376064 M 562.8535318487443 119.8533325751045 L 562.9308059148474 119.8326270514963 M 569.1127312030974 118.17618516284017 L 569.1900052692005 118.15547963923197 M 575.3719305574506 116.49903775057584 L 575.4492046235537 116.47833222696764 M 581.6311299118038 114.8218903383115 L 581.7084039779069 114.8011848147033 M 587.890329266157 113.14474292604719 L 587.9676033322601 113.12403740243899 M 594.1495286205102 111.46759551378285 L 594.2268026866133 111.44688999017465" stroke-linecap="round" stroke-linejoin="round" stroke-miterlimit="10" stroke-width="4" stroke-opacity="0.5" stroke-dasharray=""/></g><path fill="#000000" stroke="none" paint-order="stroke fill markers" d="" fill-opacity="0.4"/><g><path fill="none" stroke="#000000" class="dcg-svg-curve" paint-order="fill stroke markers" d=" M 597.6791329376304 110.5218408874091 L 597.7564070037334 110.5425464110173 M 603.9383322919834 112.19898829967343 L 604.0156063580865 112.21969382328163 M 610.1975316463365 113.87613571193776 L 610.2748057124396 113.89684123554596 M 616.4567310006896 115.5532831242021 L 616.5340050667927 115.5739886478103 M 622.7159303550428 117.23043053646643 L 622.7932044211459 117.25113606007463 M 628.975129709396 118.90757794873076 L 629.0524037754991 118.92828347233896 M 635.2343290637492 120.5847253609951 L 635.3116031298523 120.6054308846033 M 641.4935284181024 122.26187277325941 L 641.5708024842055 122.28257829686761 M 647.7527277724555 123.93902018552374 L 647.8300018385586 123.95972570913194 M 654.0119271268087 125.61616759778806 L 654.0892011929118 125.63687312139626 M 660.2711264811619 127.2933150100524 L 660.348400547265 127.3140205336606 M 666.5303258355151 128.97046242231673 L 666.6075999016182 128.99116794592493 M 672.7895251898683 130.64760983458106 L 672.8667992559714 130.66831535818926 M 679.0487245442215 132.3247572468454 L 679.1259986103246 132.3454627704536 M 685.3079238985746 134.0019046591097 L 685.3851979646777 134.0226101827179" stroke-linecap="round" stroke-linejoin="round" stroke-miterlimit="10" stroke-width="4" stroke-opacity="0.5" stroke-dasharray=""/></g><path fill="#000000" stroke="none" paint-order="stroke fill markers" d="" fill-opacity="0.4"/><g><path fill="none" stroke="#000000" class="dcg-svg-curve" paint-order="fill stroke markers" d=" M 871.154318771824 317.26444984161265 L 871.2315928379271 317.2437443180044 M 877.4135181261771 315.5873024293483 L 877.4907921922802 315.5665969057401 M 883.6727174805302 313.910155017084 L 883.7499915466333 313.88944949347575 M 889.9319168348833 312.23300760481965 L 890.0091909009864 312.2123020812114 M 896.1911161892365 310.5558601925553 L 896.2683902553396 310.5351546689471 M 902.4503155435897 308.878712780291 L 902.5275896096928 308.85800725668275 M 908.7095148979429 307.20156536802665 L 908.786788964046 307.1808598444184 M 914.968714252296 305.5244179557623 L 915.045988318399 305.5037124321541 M 921.2279136066492 303.847270543498 L 921.3051876727523 303.82656501988976 M 927.4871129610024 302.17012313123365 L 927.5643870271055 302.1494176076254 M 933.7463123153556 300.4929757189693 L 933.8235863814587 300.4722701953611 M 940.0055116697088 298.815828306705 L 940.0827857358119 298.79512278309676 M 946.2647110240619 297.13868089444065 L 946.3419850901649 297.1179753708324 M 952.523910378415 295.4615334821763 L 952.6011844445181 295.4408279585681 M 958.7831097327683 293.784386069912 L 958.8603837988713 293.76368054630376" stroke-linecap="round" stroke-linejoin="round" stroke-miterlimit="10" stroke-width="4" stroke-opacity="0.5" stroke-dasharray=""/></g><path fill="#000000" stroke="none" paint-order="stroke fill markers" d="" fill-opacity="0.4"/><g><path fill="none" stroke="#000000" class="dcg-svg-curve" paint-order="fill stroke markers" d=" M 962.3127140498885 292.8386314435382 L 962.3899881159916 292.8593369671464 M 968.5719134042416 294.5157788558026 L 968.6491874703447 294.5364843794108 M 974.8311127585947 296.1929262680669 L 974.9083868246978 296.21363179167514 M 981.0903121129478 297.87007368033125 L 981.1675861790509 297.8907792039395 M 987.349511467301 299.5472210925956 L 987.4267855334041 299.5679266162038 M 993.6087108216542 301.2243685048599 L 993.6859848877573 301.24507402846814 M 999.8679101760074 302.90151591712424 L 999.9451842421105 302.92222144073247 M 1006.1271095303605 304.5786633293886 L 1006.2043835964636 304.5993688529968 M 1012.3863088847137 306.2558107416529 L 1012.4635829508168 306.27651626526114 M 1018.6455082390669 307.93295815391724 L 1018.72278230517 307.95366367752547 M 1024.90470759342 309.6101055661816 L 1024.9819816595232 309.6308110897898 M 1031.1639069477733 311.2872529784459 L 1031.2411810138765 311.30795850205413 M 1037.4231063021266 312.96440039071024 L 1037.5003803682298 312.98510591431847 M 1043.6823056564797 314.64154780297457 L 1043.7595797225829 314.6622533265828 M 1049.9415050108328 316.3186952152389 L 1050.018779076936 316.33940073884713" stroke-linecap="round" stroke-linejoin="round" stroke-miterlimit="10" stroke-width="4" stroke-opacity="0.5" stroke-dasharray=""/></g><path fill="#000000" stroke="none" paint-order="stroke fill markers" d="" fill-opacity="0.4"/><g><path fill="none" stroke="#000000" class="dcg-svg-curve" paint-order="fill stroke markers" d=" M 1053.471109327953 317.26444984161265 L 1053.4504038043447 317.1871757755095 M 1051.7939619156884 311.00525048725945 L 1051.7732563920802 310.9279764211563 M 1050.116814503424 304.74605113290625 L 1050.0961089798157 304.6687770668031 M 1048.4396670911597 298.48685177855305 L 1048.4189615675514 298.4095777124499 M 1046.7625196788954 292.22765242419985 L 1046.741814155287 292.1503783580967 M 1045.085372266631 285.9684530698467 L 1045.0646667430228 285.89117900374356 M 1043.4082248543668 279.70925371549356 L 1043.3875193307586 279.6319796493904 M 1041.7310774421023 273.4500543611404 L 1041.710371918494 273.3727802950373 M 1040.053930029838 267.1908550067873 L 1040.0332245062298 267.11358094068413 M 1038.3767826175738 260.93165565243413 L 1038.3560770939655 260.854381586331 M 1036.6996352053095 254.67245629808096 L 1036.6789296817012 254.59518223197784 M 1035.0224877930452 248.41325694372782 L 1035.001782269437 248.3359828776247 M 1033.345340380781 242.15405758937467 L 1033.3246348571727 242.07678352327156 M 1031.6681929685167 235.89485823502153 L 1031.6474874449084 235.81758416891842 M 1029.9910455562524 229.63565888066836 L 1029.9703400326441 229.55838481456524" stroke-linecap="round" stroke-linejoin="round" stroke-miterlimit="10" stroke-width="4" stroke-opacity="0.5" stroke-dasharray=""/></g><path fill="#000000" stroke="none" paint-order="stroke fill markers" d="" fill-opacity="0.4"/><g><path fill="none" stroke="#000000" class="dcg-svg-curve" paint-order="fill stroke markers" d=" M 1029.0452909298785 226.10605456354813 L 1029.0659964534868 226.028780497445 M 1030.722438342143 219.84685520919498 L 1030.7431438657513 219.76958114309187 M 1032.3995857544076 213.58765585484184 L 1032.4202912780158 213.51038178873873 M 1034.0767331666718 207.32845650048867 L 1034.0974386902801 207.25118243438556 M 1035.753880578936 201.0692571461355 L 1035.7745861025444 200.99198308003238 M 1037.4310279912004 194.81005779178233 L 1037.4517335148087 194.7327837256792 M 1039.1081754034647 188.55085843742916 L 1039.128880927073 188.47358437132604 M 1040.785322815729 182.291659083076 L 1040.8060283393372 182.2143850169729 M 1042.4624702279934 176.03245972872284 L 1042.4831757516017 175.95518566261973 M 1044.1396176402577 169.77326037436967 L 1044.160323163866 169.69598630826655 M 1045.816765052522 163.5140610200165 L 1045.8374705761303 163.43678695391338 M 1047.4939124647863 157.25486166566333 L 1047.5146179883945 157.1775875995602 M 1049.1710598770505 150.99566231131018 L 1049.1917654006588 150.91838824520707 M 1050.8482072893148 144.736462956957 L 1050.868912812923 144.6591888908539 M 1052.525354701579 138.47726360260384 L 1052.5460602251874 138.39998953650073" stroke-linecap="round" stroke-linejoin="round" stroke-miterlimit="10" stroke-width="4" stroke-opacity="0.5" stroke-dasharray=""/></g><path fill="#000000" stroke="none" paint-order="stroke fill markers" d="" fill-opacity="0.4"/><g><path fill="none" stroke="#000000" class="dcg-svg-curve" paint-order="fill stroke markers" d=" M 1053.471109327953 134.9476592854835 L 1053.3938352618497 134.9683648090917 M 1047.2119099735996 136.62480669774783 L 1047.1346359074964 136.64551222135603 M 1040.9527106192463 138.30195411001216 L 1040.8754365531431 138.32265963362036 M 1034.693511264893 139.9791015222765 L 1034.6162371987898 139.9998070458847 M 1028.43431191054 141.65624893454083 L 1028.3570378444367 141.67695445814903 M 1022.1751125561867 143.33339634680516 L 1022.0978384900836 143.35410187041336 M 1015.9159132018336 145.0105437590695 L 1015.8386391357305 145.0312492826777 M 1009.6567138474805 146.68769117133382 L 1009.5794397813775 146.70839669494202 M 1003.3975144931275 148.36483858359816 L 1003.3202404270244 148.38554410720636 M 997.1383151387744 150.04198599586252 L 997.0610410726713 150.06269151947072 M 990.8791157844213 151.71913340812685 L 990.8018417183182 151.73983893173505 M 984.6199164300682 153.3962808203912 L 984.5426423639651 153.4169863439994 M 978.3607170757151 155.07342823265554 L 978.283443009612 155.09413375626374 M 972.1015177213619 156.7505756449199 L 972.0242436552588 156.7712811685281 M 965.8423183670087 158.42772305718424 L 965.7650443009056 158.44842858079244" stroke-linecap="round" stroke-linejoin="round" stroke-miterlimit="10" stroke-width="4" stroke-opacity="0.5" stroke-dasharray=""/></g><path fill="#000000" stroke="none" paint-order="stroke fill markers" d="" fill-opacity="0.4"/><g><path fill="none" stroke="#000000" class="dcg-svg-curve" paint-order="fill stroke markers" d=" M 962.3127140498885 159.373477683558 L 962.2354399837855 159.3527721599498 M 956.0535146955355 157.69633027129368 L 955.9762406294324 157.67562474768548 M 949.7943153411824 156.01918285902934 L 949.7170412750793 155.99847733542114 M 943.5351159868293 154.342035446765 L 943.4578419207262 154.3213299231568 M 937.2759166324761 152.66488803450068 L 937.198642566373 152.64418251089248 M 931.0167172781229 150.98774062223634 L 930.9394432120198 150.96703509862814 M 924.7575179237697 149.310593209972 L 924.6802438576666 149.2898876863638 M 918.4983185694166 147.63344579770768 L 918.4210445033135 147.61274027409948 M 912.2391192150634 145.95629838544335 L 912.1618451489603 145.93559286183515 M 905.9799198607102 144.27915097317901 L 905.9026457946071 144.25844544957081 M 899.720720506357 142.60200356091468 L 899.6434464402539 142.58129803730648 M 893.4615211520038 140.92485614865032 L 893.3842470859007 140.90415062504212 M 887.2023217976507 139.247708736386 L 887.1250477315476 139.2270032127778 M 880.9431224432975 137.57056132412163 L 880.8658483771944 137.54985580051343 M 874.6839230889443 135.8934139118573 L 874.6066490228412 135.8727083882491" stroke-linecap="round" stroke-linejoin="round" stroke-miterlimit="10" stroke-width="4" stroke-opacity="0.5" stroke-dasharray=""/></g><path fill="#000000" stroke="none" paint-order="stroke fill markers" d="" fill-opacity="0.4"/><g><path fill="none" stroke="#000000" class="dcg-svg-curve" paint-order="fill stroke markers" d=" M 871.154318771824 134.9476592854835 L 871.1750242954322 135.0249333515866 M 872.8314661840883 141.20685863983664 L 872.8521717076965 141.28413270593975 M 874.5086135963526 147.46605799418978 L 874.5293191199607 147.5433320602929 M 876.1857610086169 153.72525734854293 L 876.206466532225 153.80253141464604 M 877.8629084208811 159.9844567028961 L 877.8836139444893 160.0617307689992 M 879.5400558331454 166.24365605724927 L 879.5607613567536 166.32093012335238 M 881.2172032454098 172.50285541160244 L 881.237908769018 172.58012947770555 M 882.8943506576742 178.7620547659556 L 882.9150561812824 178.83932883205873 M 884.5714980699386 185.02125412030875 L 884.5922035935467 185.09852818641187 M 886.2486454822028 191.28045347466193 L 886.269351005811 191.35772754076504 M 887.9257928944672 197.5396528290151 L 887.9464984180754 197.6169268951182 M 889.6029403067316 203.79885218336827 L 889.6236458303398 203.87612624947138 M 891.280087718996 210.0580515377214 L 891.3007932426042 210.13532560382453 M 892.9572351312604 216.31725089207458 L 892.9779406548686 216.3945249581777 M 894.6343825435247 222.57645024642775 L 894.6550880671329 222.65372431253087" stroke-linecap="round" stroke-linejoin="round" stroke-miterlimit="10" stroke-width="4" stroke-opacity="0.5" stroke-dasharray=""/></g><path fill="#000000" stroke="none" paint-order="stroke fill markers" d="" fill-opacity="0.4"/><g><path fill="none" stroke="#000000" class="dcg-svg-curve" paint-order="fill stroke markers" d=" M 895.5801371698985 226.10605456354813 L 895.5594316462904 226.18332862965124 M 893.9029897576343 232.36525391790127 L 893.8822842340261 232.44252798400439 M 892.22584234537 238.6244532722544 L 892.2051368217618 238.70172733835753 M 890.5486949331057 244.88365262660756 L 890.5279894094975 244.96092669271067 M 888.8715475208414 251.1428519809607 L 888.8508419972333 251.22012604706381 M 887.194400108577 257.40205133531384 L 887.1736945849689 257.479325401417 M 885.5172526963128 263.66125068966704 L 885.4965471727046 263.7385247557702 M 883.8401052840484 269.92045004402024 L 883.8193997604402 269.9977241101234 M 882.162957871784 276.17964939837344 L 882.1422523481758 276.2569234644766 M 880.4858104595196 282.43884875272664 L 880.4651049359114 282.5161228188298 M 878.8086630472553 288.6980481070798 L 878.7879575236472 288.77532217318293 M 877.1315156349909 294.9572474614329 L 877.1108101113828 295.03452152753607 M 875.4543682227265 301.21644681578607 L 875.4336626991184 301.2937208818892 M 873.7772208104622 307.4756461701392 L 873.756515286854 307.55292023624236 M 872.1000733981978 313.7348455244924 L 872.0793678745896 313.81211959059556" stroke-linecap="round" stroke-linejoin="round" stroke-miterlimit="10" stroke-width="4" stroke-opacity="0.5" stroke-dasharray=""/></g></g><g id="sketch-078058a0"><title>Expression 103</title><path fill="#c83c1e" stroke="none" paint-order="stroke fill markers" d="" fill-opacity="0.4"/><g><path fill="none" stroke="#c83c1e" class="dcg-svg-curve" paint-order="fill stroke markers" d=" M 141.88715654730777 317.26444984161265 L 324.2039471034368 317.26444984161265" stroke-linecap="round" stroke-linejoin="round" stroke-miterlimit="10" stroke-dasharray=""/></g><path fill="#c83c1e" stroke="none" paint-order="stroke fill markers" d="" fill-opacity="0.4"/><g><path fill="none" stroke="#c83c1e" class="dcg-svg-curve" paint-order="fill stroke markers" d=" M 506.5207376595659 317.26444984161265 L 688.837528215695 317.26444984161265" stroke-linecap="round" stroke-linejoin="round" stroke-miterlimit="10" stroke-dasharray=""/></g><path fill="#c83c1e" stroke="none" paint-order="stroke fill markers" d="" fill-opacity="0.4"/><g><path fill="none" stroke="#c83c1e" class="dcg-svg-curve" paint-order="fill stroke markers" d=" M 688.837528215695 317.26444984161265 L 688.837528215695 134.9476592854835" stroke-linecap="round" stroke-linejoin="round" stroke-miterlimit="10" stroke-dasharray=""/></g><path fill="#c83c1e" stroke="none" paint-order="stroke fill markers" d="" fill-opacity="0.4"/><g><path fill="none" stroke="#c83c1e" class="dcg-svg-curve" paint-order="fill stroke markers" d=" M 871.154318771824 317.26444984161265 L 1053.471109327953 317.26444984161265" stroke-linecap="round" stroke-linejoin="round" stroke-miterlimit="10" stroke-dasharray=""/></g><path fill="#c83c1e" stroke="none" paint-order="stroke fill markers" d="" fill-opacity="0.4"/><g><path fill="none" stroke="#c83c1e" class="dcg-svg-curve" paint-order="fill stroke markers" d=" M 1053.471109327953 317.26444984161265 L 1053.471109327953 134.9476592854835" stroke-linecap="round" stroke-linejoin="round" stroke-miterlimit="10" stroke-dasharray=""/></g><path fill="#c83c1e" stroke="none" paint-order="stroke fill markers" d="" fill-opacity="0.4"/><g><path fill="none" stroke="#c83c1e" class="dcg-svg-curve" paint-order="fill stroke markers" d=" M 1053.471109327953 134.9476592854835 L 871.154318771824 134.9476592854835" stroke-linecap="round" stroke-linejoin="round" stroke-miterlimit="10" stroke-dasharray=""/></g><path fill="#c83c1e" stroke="none" paint-order="stroke fill markers" d="" fill-opacity="0.4"/><g><path fill="none" stroke="#c83c1e" class="dcg-svg-curve" paint-order="fill stroke markers" d=" M 871.154318771824 134.9476592854835 L 871.154318771824 317.26444984161265" stroke-linecap="round" stroke-linejoin="round" stroke-miterlimit="10" stroke-dasharray=""/></g></g><g id="sketch-078058a0"><title>Expression 104</title><path fill="#1e46c8" stroke="none" paint-order="stroke fill markers" d="" fill-opacity="0.4"/><g><path fill="none" stroke="#1e46c8" class="dcg-svg-curve" paint-order="fill stroke markers" d=" M 141.88715654730777 317.26444984161265 L 233.04555182537229 159.373477683558" stroke-linecap="round" stroke-linejoin="round" stroke-miterlimit="10" stroke-dasharray=""/></g><path fill="#1e46c8" stroke="none" paint-order="stroke fill markers" d="" fill-opacity="0.4"/><g><path fill="none" stroke="#1e46c8" class="dcg-svg-curve" paint-order="fill stroke markers" d=" M 233.04555182537229 159.373477683558 L 324.2039471034368 317.26444984161265" stroke-linecap="round" stroke-linejoin="round" stroke-miterlimit="10" stroke-dasharray=""/></g><path fill="#1e46c8" stroke="none" paint-order="stroke fill markers" d="" fill-opacity="0.4"/><g><path fill="none" stroke="#1e46c8" class="dcg-svg-curve" paint-order="fill stroke markers" d=" M 506.5207376595659 317.26444984161265 L 506.5207376595659 134.9476592854835" stroke-linecap="round" stroke-linejoin="round" stroke-miterlimit="10" stroke-dasharray=""/></g><path fill="#1e46c8" stroke="none" paint-order="stroke fill markers" d="" fill-opacity="0.4"/><g><path fill="none" stroke="#1e46c8" class="dcg-svg-curve" paint-order="fill stroke markers" d=" M 506.5207376595659 134.9476592854835 L 688.837528215695 134.9476592854835" stroke-linecap="round" stroke-linejoin="round" stroke-miterlimit="10" stroke-dasharray=""/></g></g><g id="sketch-078058a0"><title>Expression 105</title><path fill="#000000" stroke="none" paint-order="stroke fill markers" d="" fill-opacity="0.4"/><g><path fill="none" stroke="#000000" class="dcg-svg-curve" paint-order="fill stroke markers" d=" M 233.04555182537229 381.0753265362578 L 233.04555182537229 435.77036370309656 M 233.04555182537229 435.77036370309656 L 229.48854233478534 425.9975604469231 L 236.60256131595924 425.9975604469231 L 233.04555182537229 435.77036370309656 L 231.58690713297008 427.497978577794 L 234.5041965177745 427.497978577794 L 233.04555182537229 435.77036370309656" stroke-linecap="round" stroke-linejoin="round" stroke-miterlimit="10" stroke-width="2" stroke-dasharray=""/></g><path fill="#000000" stroke="none" paint-order="stroke fill markers" d="" fill-opacity="0.4"/><g><path fill="none" stroke="#000000" class="dcg-svg-curve" paint-order="fill stroke markers" d=" M 597.6791329376304 381.0753265362578 L 597.6791329376304 435.77036370309656 M 597.6791329376304 435.77036370309656 L 594.1221234470434 425.9975604469231 L 601.2361424282174 425.9975604469231 L 597.6791329376304 435.77036370309656 L 596.2204882452281 427.497978577794 L 599.1377776300326 427.497978577794 L 597.6791329376304 435.77036370309656" stroke-linecap="round" stroke-linejoin="round" stroke-miterlimit="10" stroke-width="2" stroke-dasharray=""/></g><path fill="#000000" stroke="none" paint-order="stroke fill markers" d="" fill-opacity="0.4"/><g><path fill="none" stroke="#000000" class="dcg-svg-curve" paint-order="fill stroke markers" d=" M 962.3127140498885 381.0753265362578 L 962.3127140498885 435.77036370309656 M 962.3127140498885 435.77036370309656 L 958.7557045593015 425.9975604469231 L 965.8697235404755 425.9975604469231 L 962.3127140498885 435.77036370309656 L 960.8540693574863 427.497978577794 L 963.7713587422908 427.497978577794 L 962.3127140498885 435.77036370309656" stroke-linecap="round" stroke-linejoin="round" stroke-miterlimit="10" stroke-width="2" stroke-dasharray=""/></g></g></g><g id="labels-078058a0"/></g></svg>