<?xml version="1.0" standalone="no"?>
<!DOCTYPE svg PUBLIC "-//W3C//DTD SVG 20010904//EN"
 "http://www.w3.org/TR/2001/REC-SVG-20010904/DTD/svg10.dtd">
<svg version="1.0" xmlns="http://www.w3.org/2000/svg"
 width="480.000000pt" height="480.000000pt" viewBox="0 0 480.000000 480.000000"
 preserveAspectRatio="xMidYMid meet">
<metadata>
Created by potrace 1.14, written by Peter Selinger 2001-2017
</metadata>
<g transform="translate(0.000000,480.000000) scale(0.100000,-0.100000)"
fill="#000000" stroke="none">
<path d="M0 4718 l0 -83 80 80 c44 44 80 81 80 82 0 2 -36 3 -80 3 l-80 0 0
-82z"/>
<path d="M1255 4755 c-88 -24 -160 -44 -160 -45 0 -1 -11 -4 -25 -6 -37 -7
-433 -114 -438 -118 -2 -3 -23 -77 -47 -166 -24 -89 -45 -163 -47 -165 -2 -1
-76 -21 -166 -45 l-162 -44 -15 -50 c-29 -104 -105 -390 -105 -397 0 -4 8 -10
18 -12 14 -4 13 -5 -4 -6 -18 -1 -26 -20 -62 -160 -32 -122 -42 -177 -42 -238
l0 -80 104 -104 104 -104 -45 -169 -46 -168 166 -166 166 -166 23 20 23 19
-19 -23 -20 -23 163 -162 163 -162 152 39 c83 21 157 42 164 45 8 5 58 -39
136 -118 l124 -125 419 113 c230 62 435 118 456 123 29 9 40 18 47 42 l10 31
-5 -34 c-5 -32 2 -40 137 -176 78 -79 147 -141 152 -138 5 3 6 2 3 -4 -3 -5
78 -93 181 -195 l187 -186 125 34 c69 18 142 39 163 44 23 7 42 20 47 33 9 21
10 21 7 -3 -3 -34 24 -33 34 2 4 16 2 37 -7 53 -13 25 -10 75 5 75 3 0 7 17 8
37 1 21 6 39 11 41 6 2 7 12 4 24 -3 14 -1 19 6 14 7 -4 12 -21 12 -37 0 -17
-4 -28 -9 -24 -14 8 -24 -32 -12 -52 9 -15 11 -14 12 12 1 25 3 26 6 7 3 -13
-4 -38 -15 -56 -13 -22 -17 -38 -11 -47 5 -8 6 -27 3 -42 -4 -19 0 -34 11 -47
9 -10 14 -24 10 -30 -4 -6 2 -20 14 -31 22 -20 36 -25 26 -9 -3 6 -1 10 5 10
7 0 9 -8 5 -21 -6 -18 -4 -20 14 -14 13 4 21 2 21 -5 0 -6 -4 -8 -10 -5 -19
12 -10 -6 16 -32 21 -21 28 -23 36 -12 7 10 7 7 3 -9 -5 -18 -3 -23 10 -20 11
2 19 -4 20 -14 2 -10 11 -25 20 -34 14 -15 18 -15 27 -3 8 11 9 10 4 -3 -3
-11 4 -27 17 -40 l23 -23 29 34 c17 19 23 31 15 26 -9 -5 -12 -5 -7 1 5 5 16
9 25 9 9 0 17 8 17 17 0 9 4 20 9 25 5 5 6 2 1 -7 -5 -8 4 -4 18 9 29 26 35
37 15 25 -8 -4 -9 -3 -5 2 5 5 16 9 25 9 9 0 17 8 17 17 0 9 4 20 9 25 5 5 6
2 1 -7 -5 -8 4 -4 18 9 29 26 35 37 15 25 -8 -4 -9 -3 -5 2 5 5 16 9 25 9 9 0
17 8 17 17 0 9 4 20 9 25 5 5 6 2 1 -7 -5 -8 4 -4 18 9 28 26 35 37 15 25 -7
-4 -8 -3 -4 4 4 6 13 9 21 5 15 -5 18 4 17 57 -1 18 2 15 9 -11 l10 -37 142
-37 c78 -21 143 -39 145 -40 1 -1 -61 -2 -138 -2 -89 1 -135 4 -125 10 9 5 27
6 40 3 29 -7 86 4 79 15 -3 5 -10 6 -16 3 -5 -4 -20 -1 -33 6 -29 15 -108 5
-84 -11 10 -8 8 -9 -9 -4 -24 7 -56 -11 -46 -26 3 -5 2 -8 -3 -7 -12 4 -83
-63 -77 -74 3 -5 2 -7 -3 -6 -13 5 -83 -64 -76 -75 3 -6 2 -8 -3 -5 -5 4 -27
-11 -49 -33 -22 -21 -43 -39 -47 -39 -7 0 3 -23 20 -50 2 -2 8 2 13 10 9 12
10 11 5 -4 -9 -26 32 -65 46 -45 7 10 8 8 3 -7 -5 -21 18 -43 28 -26 2 4 2 2
1 -5 -2 -6 6 -22 17 -34 17 -20 22 -21 30 -9 8 12 9 10 4 -6 -5 -21 18 -43 28
-26 2 4 3 2 1 -4 -3 -13 5 -24 30 -44 12 -9 17 -10 12 -2 -4 7 -2 12 4 12 7 0
9 -8 5 -19 -5 -18 19 -38 28 -23 2 4 2 2 1 -5 -2 -6 6 -21 16 -33 13 -15 17
-28 11 -39 -4 -9 -25 -82 -46 -163 -25 -95 -42 -145 -49 -141 -6 3 110 -116
259 -266 l270 -271 212 0 213 0 0 206 0 206 -95 97 -95 96 -212 -210 -213
-210 210 213 210 212 -172 171 c-94 94 -170 176 -168 183 2 6 9 44 15 83 7 40
16 73 21 73 5 0 4 -11 -1 -26 -6 -14 -10 -33 -9 -42 1 -28 29 70 31 110 1 20
5 35 9 32 15 -9 19 58 4 73 -8 8 -15 22 -14 31 0 14 2 13 10 -3 7 -16 8 -12 4
14 -3 18 -5 37 -5 42 0 5 -21 14 -47 21 -26 6 -43 13 -37 15 6 2 30 -3 53 -10
22 -8 41 -11 41 -6 0 5 5 9 11 9 5 0 8 -4 5 -9 -3 -5 0 -14 8 -20 11 -9 14 -6
14 14 -1 14 -3 23 -6 21 -3 -3 -12 -1 -19 6 -11 9 -16 9 -22 0 -5 -8 -15 -9
-36 -2 l-30 10 28 -4 c15 -2 30 1 34 7 4 6 -9 8 -35 4 -23 -3 -45 -1 -48 4 -3
5 3 9 13 10 16 0 16 1 -2 9 -36 15 -2 10 69 -10 38 -11 71 -19 72 -17 5 5 117
433 118 449 0 9 3 15 7 13 3 -2 67 12 143 32 l136 36 -2 255 -3 255 -60 18
c-33 10 -53 18 -45 18 8 0 36 -6 62 -14 l48 -14 0 894 0 894 -33 -10 c-17 -5
-104 -28 -192 -51 -88 -23 -162 -43 -164 -45 -2 -1 22 -104 54 -227 l59 -224
54 -12 c29 -6 52 -14 49 -16 -2 -2 -27 1 -56 8 l-52 12 -165 -165 -164 -164
166 -167 167 -166 -57 -214 c-31 -117 -59 -222 -61 -233 -17 -79 -125 -458
-131 -465 -5 -4 -99 -31 -209 -60 -110 -29 -208 -55 -217 -58 -10 -2 -18 -12
-18 -21 0 -9 20 -92 45 -185 25 -93 43 -171 40 -174 -3 -3 -13 2 -22 11 -11
11 -17 36 -18 81 -1 36 -5 69 -9 73 -5 5 -7 -4 -4 -18 3 -16 0 -26 -7 -26 -8
0 -11 20 -10 61 1 37 -4 74 -13 94 -8 19 -15 46 -16 60 -1 15 -4 26 -8 25 -5
-2 -16 -3 -25 -4 -12 -1 -10 -4 7 -9 14 -4 20 -8 13 -9 -8 -1 -10 -13 -6 -35
3 -19 1 -36 -6 -40 -7 -5 -9 -1 -5 9 10 24 -5 68 -21 61 -7 -2 -15 -1 -17 4
-2 5 -14 7 -26 3 -18 -4 -21 -8 -10 -15 8 -6 2 -7 -18 -3 -27 5 -31 3 -30 -16
1 -12 -5 -24 -13 -27 -9 -3 -11 1 -6 17 6 21 -4 28 -19 14 -4 -4 -20 -8 -36
-9 -15 -1 -42 -9 -60 -17 -17 -9 -38 -13 -47 -10 -10 4 -14 2 -10 -4 4 -6 1
-14 -5 -17 -7 -3 -2 -3 12 0 14 4 22 3 18 -1 -11 -11 -68 -14 -68 -3 0 4 5 8
12 8 6 0 9 2 7 5 -8 7 -49 -7 -44 -16 3 -4 -4 -7 -15 -6 -12 1 -91 72 -190
172 l-170 170 -212 -210 -213 -210 210 213 210 212 -164 164 c-126 125 -169
162 -185 159 -20 -3 -20 -3 -2 5 15 7 28 39 53 133 18 68 47 174 63 234 16 61
54 204 85 319 31 115 57 216 58 225 0 9 10 17 21 18 49 5 196 50 189 58 -5 4
-2 5 5 1 7 -4 38 0 70 10 31 10 66 19 77 21 11 2 36 8 57 13 36 10 36 11 26
46 -5 20 -7 38 -4 41 2 3 8 -11 11 -31 4 -20 10 -38 14 -40 7 -5 432 107 449
118 5 3 19 -6 32 -19 13 -13 27 -22 33 -18 6 3 7 2 4 -4 -8 -13 67 -86 78 -76
4 5 5 3 2 -3 -8 -14 66 -87 78 -77 4 5 5 3 2 -3 -3 -6 20 -36 52 -68 47 -46
59 -54 65 -41 3 9 10 13 16 10 5 -3 10 -2 10 3 0 19 -14 21 -33 5 -12 -11 -17
-12 -12 -4 5 9 4 12 -2 8 -6 -4 -10 1 -9 11 0 9 -5 16 -12 14 -8 -1 -11 2 -8
7 4 5 16 7 29 5 60 -14 78 -12 94 12 8 13 19 21 24 18 5 -3 9 -1 9 4 0 17 -13
22 -29 10 -9 -7 -5 0 8 15 18 20 28 24 37 16 9 -8 17 -4 29 15 10 14 21 23 26
20 5 -3 9 -1 9 4 0 17 -13 22 -29 10 -9 -7 -5 0 8 15 17 18 28 24 36 17 17
-14 27 0 13 19 -10 13 -9 14 0 5 10 -8 20 -4 41 15 16 14 27 30 24 34 -3 5
-17 -2 -31 -15 -22 -18 -23 -19 -9 -2 9 11 14 23 11 26 -3 3 11 4 30 2 27 -2
36 1 36 12 0 8 -4 13 -9 10 -4 -3 -6 6 -3 21 3 17 1 24 -6 19 -6 -4 -8 1 -5
13 3 11 -3 36 -13 56 -9 20 -18 49 -19 64 -2 14 -5 37 -9 51 -3 14 -8 37 -12
53 -3 15 -10 27 -15 27 -6 0 -8 4 -4 9 7 12 -14 99 -26 107 -13 8 -80 -7 -73
-17 3 -5 -2 -6 -10 -3 -9 3 -45 -4 -80 -15 -36 -12 -72 -21 -80 -21 -14 0 -84
-21 -126 -37 -8 -3 -24 -7 -34 -8 -11 -1 -22 -7 -23 -12 -2 -6 -61 48 -130
118 -70 71 -131 129 -137 129 -6 1 -109 -25 -228 -57 -191 -50 -218 -60 -219
-78 -1 -17 -2 -18 -6 -2 -3 13 -10 16 -26 11 -12 -4 -100 -28 -195 -53 -95
-26 -171 -49 -168 -51 2 -3 -9 -5 -25 -6 -16 -1 -32 -4 -35 -7 -4 -3 -24 -75
-46 -159 -22 -84 -41 -155 -44 -157 -2 -2 4 -14 13 -25 18 -21 18 -21 -3 -3
l-21 17 44 167 44 167 -162 162 c-136 136 -165 161 -178 152 -14 -10 -14 -10
-3 2 10 12 -15 42 -154 181 -134 134 -170 166 -188 161 -11 -2 -86 -22 -165
-43 -117 -32 -147 -36 -160 -26 -8 6 -57 54 -108 105 l-93 92 -78 -1 c-57 -1
-118 -12 -237 -44z m-148 -117 c-3 -8 -6 -5 -6 6 -1 11 2 17 5 13 3 -3 4 -12
1 -19z m10 -40 c-3 -8 -6 -5 -6 6 -1 11 2 17 5 13 3 -3 4 -12 1 -19z m10 -40
c-3 -8 -6 -5 -6 6 -1 11 2 17 5 13 3 -3 4 -12 1 -19z m10 -40 c-3 -8 -6 -5 -6
6 -1 11 2 17 5 13 3 -3 4 -12 1 -19z m42 -138 c0 -9 -4 -8 -9 5 -5 11 -9 27
-9 35 0 9 4 8 9 -5 5 -11 9 -27 9 -35z m19 -80 c0 -9 -3 -7 -8 5 -5 11 -8 29
-8 40 0 16 2 15 8 -5 4 -14 8 -32 8 -40z m1202 -13 c0 -2 -15 -16 -32 -33
l-33 -29 29 33 c28 30 36 37 36 29z m-1193 -29 c-3 -8 -6 -5 -6 6 -1 11 2 17
5 13 3 -3 4 -12 1 -19z m655 -165 l167 -167 23 20 23 19 -20 -23 -19 -23 159
-159 c88 -88 167 -160 175 -160 10 0 11 -3 4 -8 -6 -4 -25 -63 -44 -132 -18
-69 -45 -172 -61 -230 -77 -291 -148 -552 -151 -555 -2 -1 -208 -57 -458 -124
l-455 -121 -165 165 -165 165 -30 -27 -30 -28 27 30 28 31 -165 164 c-91 91
-165 171 -165 179 0 12 87 344 125 476 7 28 37 135 65 240 28 104 52 190 53
191 1 0 102 27 225 60 195 51 222 61 223 79 1 17 2 17 6 2 3 -12 11 -15 26
-11 12 3 110 29 217 59 107 29 199 53 205 54 5 1 85 -74 177 -166z m-645 125
c-3 -8 -6 -5 -6 6 -1 11 2 17 5 13 3 -3 4 -12 1 -19z m1113 -1 c0 -2 -17 -19
-37 -38 l-38 -34 34 38 c33 34 41 42 41 34z m-80 -80 c0 -2 -17 -19 -37 -38
l-38 -34 34 38 c33 34 41 42 41 34z m1007 -69 c-3 -8 -6 -5 -6 6 -1 11 2 17 5
13 3 -3 4 -12 1 -19z m-1087 -11 c0 -2 -17 -19 -37 -38 l-38 -34 34 38 c33 34
41 42 41 34z m1114 -77 c6 -32 5 -33 -5 -10 -6 14 -13 39 -15 55 -2 23 -1 26
5 10 5 -11 11 -36 15 -55z m843 54 c-3 -3 -12 -4 -19 -1 -8 3 -5 6 6 6 11 1
17 -2 13 -5z m-150 -66 c-3 -8 -6 -5 -6 6 -1 11 2 17 5 13 3 -3 4 -12 1 -19z
m-27 8 c0 -3 -4 -8 -10 -11 -5 -3 -10 -1 -10 4 0 6 5 11 10 11 6 0 10 -2 10
-4z m-653 -58 c-3 -8 -6 -5 -6 6 -1 11 2 17 5 13 3 -3 4 -12 1 -19z m617 -42
c-3 -15 -8 -25 -11 -23 -2 3 -1 17 3 31 3 15 8 25 11 23 2 -3 1 -17 -3 -31z
m-607 2 c-3 -8 -6 -5 -6 6 -1 11 2 17 5 13 3 -3 4 -12 1 -19z m588 -78 c-9
-41 -17 -33 -9 9 4 17 9 30 11 27 3 -2 2 -19 -2 -36z m-568 8 c-3 -8 -6 -5 -6
6 -1 11 2 17 5 13 3 -3 4 -12 1 -19z m36 -128 c6 -33 6 -33 -7 5 -7 22 -16 56
-19 75 -6 33 -6 33 7 -5 7 -22 16 -56 19 -75z m511 46 c-3 -15 -8 -25 -11 -23
-2 3 -1 17 3 31 3 15 8 25 11 23 2 -3 1 -17 -3 -31z m-3694 -36 c20 -6 21 -8
5 -8 -11 0 -29 3 -40 8 -25 11 1 11 35 0z m3711 -13 c-10 -9 -11 -8 -5 6 3 10
9 15 12 12 3 -3 0 -11 -7 -18z m-3636 -7 c13 -5 14 -9 5 -9 -8 0 -24 4 -35 9
-13 5 -14 9 -5 9 8 0 24 -4 35 -9z m52 -16 c-3 -3 -12 -4 -19 -1 -8 3 -5 6 6
6 11 1 17 -2 13 -5z m40 -10 c-3 -3 -12 -4 -19 -1 -8 3 -5 6 6 6 11 1 17 -2
13 -5z m4363 -9 c47 -18 27 -18 -30 -1 -25 8 -36 15 -25 15 11 0 36 -7 55 -14z
m-1944 -12 c23 -21 48 -53 42 -53 -2 0 -19 16 -38 35 -35 36 -38 49 -4 18z
m-2349 1 c-3 -3 -12 -4 -19 -1 -8 3 -5 6 6 6 11 1 17 -2 13 -5z m40 -10 c-3
-3 -12 -4 -19 -1 -8 3 -5 6 6 6 11 1 17 -2 13 -5z m4320 0 c-3 -3 -12 -4 -19
-1 -8 3 -5 6 6 6 11 1 17 -2 13 -5z m-4250 -20 c-3 -3 -12 -4 -19 -1 -8 3 -5
6 6 6 11 1 17 -2 13 -5z m2319 -52 c31 -28 78 -82 73 -82 -3 0 -27 23 -54 50
-46 47 -60 71 -19 32z m-79 -548 c-3 -3 -12 -4 -19 -1 -8 3 -5 6 6 6 11 1 17
-2 13 -5z m-1957 -297 c0 -2 -17 -19 -37 -38 l-38 -34 34 38 c33 34 41 42 41
34z m-80 -80 c0 -2 -17 -19 -37 -38 l-38 -34 34 38 c33 34 41 42 41 34z m3717
-73 c-3 -3 -12 -4 -19 -1 -8 3 -5 6 6 6 11 1 17 -2 13 -5z m-3797 -7 c0 -2
-17 -19 -37 -38 l-38 -34 34 38 c33 34 41 42 41 34z m3921 -24 c54 -14 97 -28
95 -30 -4 -5 -198 46 -205 53 -8 8 11 4 110 -23z m-2034 -39 c-3 -3 -12 -4
-19 -1 -8 3 -5 6 6 6 11 1 17 -2 13 -5z m-1967 -17 c0 -2 -17 -19 -37 -38
l-38 -34 34 38 c33 34 41 42 41 34z m1127 -29 c-3 -8 -6 -5 -6 6 -1 11 2 17 5
13 3 -3 4 -12 1 -19z m650 -70 c-3 -8 -6 -5 -6 6 -1 11 2 17 5 13 3 -3 4 -12
1 -19z m-620 -40 c-3 -8 -6 -5 -6 6 -1 11 2 17 5 13 3 -3 4 -12 1 -19z m590
-70 c-3 -8 -6 -5 -6 6 -1 11 2 17 5 13 3 -3 4 -12 1 -19z m-10 -40 c-3 -8 -6
-5 -6 6 -1 11 2 17 5 13 3 -3 4 -12 1 -19z m-510 -150 c-3 -8 -6 -5 -6 6 -1
11 2 17 5 13 3 -3 4 -12 1 -19z m10 -40 c-3 -8 -6 -5 -6 6 -1 11 2 17 5 13 3
-3 4 -12 1 -19z m1960 -120 c-3 -8 -6 -5 -6 6 -1 11 2 17 5 13 3 -3 4 -12 1
-19z m-150 -31 c-2 -6 -9 -13 -17 -15 -7 -3 -10 0 -6 7 5 7 -1 11 -13 11 -12
0 -21 4 -21 8 0 5 14 7 30 4 17 -2 29 -9 27 -15z m-71 6 c-10 -11 -37 -12 -30
-2 3 5 12 9 21 9 9 0 13 -3 9 -7z m134 -13 c0 -5 -4 -10 -10 -10 -5 0 -10 5
-10 10 0 6 5 10 10 10 6 0 10 -4 10 -10z m180 -191 c0 -17 5 -39 10 -50 6 -11
7 -19 2 -19 -6 0 -13 10 -17 23 -11 35 -14 77 -4 77 5 0 9 -14 9 -31z m-500
-81 c0 -19 -2 -20 -10 -8 -13 19 -13 30 0 30 6 0 10 -10 10 -22z m-50 -15 c0
-22 -2 -25 -10 -13 -13 20 -13 40 0 40 6 0 10 -12 10 -27z m44 -49 c3 -8 2
-12 -4 -9 -6 3 -10 10 -10 16 0 14 7 11 14 -7z m519 -19 c4 -8 3 -16 -1 -19
-13 -8 -35 11 -28 23 10 15 23 14 29 -4z m152 -35 c13 -5 14 -9 5 -9 -8 0 -24
4 -35 9 -13 5 -14 9 -5 9 8 0 24 -4 35 -9z m-88 -26 c-3 -3 -12 -4 -19 -1 -8
3 -5 6 6 6 11 1 17 -2 13 -5z m-144 -19 c4 -8 3 -16 -1 -19 -13 -8 -35 11 -28
23 10 15 23 14 29 -4z m-80 -80 c4 -8 3 -16 -1 -19 -13 -8 -35 11 -28 23 10
15 23 14 29 -4z m-79 -80 c2 -7 -4 -21 -15 -31 -21 -19 -21 -19 -23 17 -2 27
28 39 38 14z m693 -47 c-3 -7 -5 -2 -5 12 0 14 2 19 5 13 2 -7 2 -19 0 -25z
m-650 -22 c0 -8 -6 -12 -15 -9 -11 5 -11 7 0 14 7 5 13 9 14 9 0 0 1 -6 1 -14z
m592 -156 c0 -8 -6 0 -14 19 -8 18 -15 41 -14 50 1 19 27 -47 28 -69z m11 70
c0 -5 -4 -10 -10 -10 -5 0 -10 5 -10 10 0 6 5 10 10 10 6 0 10 -4 10 -10z
m-28 -152 c-6 -6 -7 0 -4 19 5 21 7 23 10 9 2 -10 0 -22 -6 -28z m-112 -10
c-13 -5 -35 -6 -49 -3 -26 7 -81 -11 -81 -26 0 -13 13 -11 38 6 17 12 26 13
42 5 16 -9 25 -8 36 0 8 8 27 10 49 6 27 -5 37 -3 41 8 5 12 9 13 19 3 10 -10
8 -13 -13 -19 -14 -4 -36 -5 -48 -2 -13 3 -31 1 -41 -5 -15 -9 -13 -10 12 -6
29 5 29 5 5 -5 -17 -8 -32 -8 -48 -1 -13 6 -28 11 -35 10 -7 0 -1 -5 12 -10
13 -5 21 -12 18 -15 -3 -3 -14 -1 -25 5 -25 13 -65 3 -58 -15 3 -8 1 -14 -4
-14 -5 0 -8 19 -7 43 l2 42 80 1 c60 1 74 -1 55 -8z m-83 -64 c-3 -3 -12 -4
-19 -1 -8 3 -5 6 6 6 11 1 17 -2 13 -5z m-67 -16 c0 -4 -6 -8 -14 -8 -8 0 -17
4 -20 8 -2 4 4 8 15 8 10 0 19 -4 19 -8z"/>
<path d="M1241 3556 l-122 -122 42 -160 c23 -87 44 -162 48 -166 3 -4 79 -27
168 -51 l161 -44 122 122 122 122 -42 159 c-24 87 -46 163 -50 167 -4 4 -74
26 -156 48 -82 22 -154 41 -160 43 -6 2 -66 -51 -133 -118z"/>
<path d="M3614 1262 c3 -5 0 -12 -6 -15 -7 -2 -10 -7 -7 -11 3 -4 12 0 18 8 9
11 9 16 0 22 -7 4 -9 3 -5 -4z"/>
<path d="M2764 4774 c4 -15 10 -40 13 -56 7 -35 8 -36 198 -85 l145 -38 102
103 103 102 -284 0 -283 0 6 -26z"/>
<path d="M3832 4758 c-6 -23 -10 -43 -9 -43 1 -1 103 -29 227 -63 l225 -61
105 105 105 104 -321 0 -322 0 -10 -42z"/>
<path d="M4376 3581 c-4 -5 -2 -12 3 -15 5 -4 12 -2 15 3 4 5 2 12 -3 15 -5 4
-12 2 -15 -3z"/>
<path d="M4296 3501 c-4 -5 -2 -12 3 -15 5 -4 12 -2 15 3 4 5 2 12 -3 15 -5 4
-12 2 -15 -3z"/>
<path d="M4177 3415 c3 -8 9 -12 14 -9 12 7 11 11 -5 17 -10 4 -13 1 -9 -8z"/>
<path d="M4216 3408 c3 -5 10 -6 15 -3 13 9 11 12 -6 12 -8 0 -12 -4 -9 -9z"/>
<path d="M3400 2975 l-123 -123 44 -163 44 -164 155 -42 c85 -24 162 -43 170
-43 8 0 68 53 133 118 l119 119 -37 134 c-20 74 -41 148 -46 166 -11 35 -5 33
-225 91 l-111 30 -123 -123z"/>
<path d="M0 1757 l0 -282 101 101 101 101 -42 159 c-24 87 -46 163 -50 167 -4
4 -30 14 -59 22 l-51 13 0 -281z"/>
<path d="M1315 1870 c10 -11 20 -20 23 -20 3 0 -3 9 -13 20 -10 11 -20 20 -23
20 -3 0 3 -9 13 -20z"/>
<path d="M3851 1794 c0 -11 3 -14 6 -6 3 7 2 16 -1 19 -3 4 -6 -2 -5 -13z"/>
<path d="M3880 1675 c0 -5 5 -17 10 -25 5 -8 10 -10 10 -5 0 6 -5 17 -10 25
-5 8 -10 11 -10 5z"/>
<path d="M3315 1639 c-9 -28 -2 -33 13 -9 6 11 8 21 3 25 -5 3 -13 -4 -16 -16z"/>
<path d="M679 1553 c-12 -3 -33 -65 -78 -231 l-61 -227 117 -117 116 -116 53
1 c30 1 49 4 43 8 -6 3 4 9 21 13 18 3 36 3 41 0 5 -3 9 -1 9 4 0 4 33 16 74
26 41 9 81 23 89 29 9 7 40 104 75 232 l59 220 -34 10 c-19 6 -31 14 -26 18 4
5 1 5 -8 2 -8 -3 -79 12 -157 33 -120 32 -140 40 -129 52 10 12 9 12 -4 2 -13
-10 -31 -9 -87 5 -39 9 -69 20 -66 24 2 4 -1 11 -7 15 -8 4 -9 3 -5 -4 4 -7 1
-12 -9 -12 -9 0 -13 5 -10 10 3 6 5 9 3 9 -2 -1 -10 -3 -19 -6z"/>
<path d="M1820 1395 l-122 -122 44 -164 44 -164 149 -42 c83 -23 159 -42 170
-42 13 -1 62 41 138 117 l118 118 -31 115 c-66 240 -55 217 -103 230 -23 6
-97 26 -163 44 l-122 33 -122 -123z"/>
<path d="M3310 1504 c0 -10 31 -36 37 -31 3 3 -2 13 -10 22 -16 15 -27 19 -27
9z"/>
<path d="M3936 1495 c-11 -8 -15 -15 -10 -15 6 0 19 7 30 15 10 8 15 14 9 14
-5 0 -19 -6 -29 -14z"/>
<path d="M1033 1475 c0 -8 4 -12 9 -9 5 3 6 10 3 15 -9 13 -12 11 -12 -6z"/>
<path d="M4105 1460 c3 -5 11 -10 16 -10 6 0 7 5 4 10 -3 6 -11 10 -16 10 -6
0 -7 -4 -4 -10z"/>
<path d="M4344 1316 c0 -25 4 -46 7 -46 14 0 17 55 4 73 -11 16 -12 12 -11
-27z"/>
<path d="M30 961 l-25 -7 -3 -319 -2 -320 101 101 102 102 -37 138 c-88 337
-81 321 -136 305z"/>
<path d="M2817 963 c-2 -5 -30 -108 -62 -229 l-59 -222 -160 -43 c-89 -23
-186 -49 -216 -57 -30 -7 -58 -17 -62 -20 -4 -4 11 -72 33 -152 40 -146 44
-163 55 -213 l6 -27 253 0 253 0 11 33 c30 96 62 231 57 243 -3 8 0 11 8 8 15
-6 436 103 449 116 6 5 -97 432 -109 448 -3 4 -434 121 -446 122 -4 0 -9 -3
-11 -7z m-2 -563 c55 -55 97 -100 95 -100 -3 0 -50 45 -105 100 -55 55 -97
100 -95 100 3 0 50 -45 105 -100z"/>
<path d="M1076 904 c-24 -23 -19 -25 15 -6 29 17 31 16 50 -7 11 -13 24 -31
29 -40 5 -9 11 -13 14 -10 10 9 -55 79 -74 79 -10 0 -26 -7 -34 -16z"/>
<path d="M1037 897 c3 -5 -4 -6 -18 -3 -21 6 -22 6 -5 -5 14 -9 21 -8 33 3 12
13 12 15 -1 15 -8 0 -13 -5 -9 -10z"/>
<path d="M1100 888 c-13 -8 -12 -9 2 -4 11 3 18 -1 20 -12 2 -11 6 -13 11 -6
11 18 -15 35 -33 22z"/>
<path d="M968 883 c7 -3 16 -2 19 1 4 3 -2 6 -13 5 -11 0 -14 -3 -6 -6z"/>
<path d="M828 853 c7 -3 16 -2 19 1 4 3 -2 6 -13 5 -11 0 -14 -3 -6 -6z"/>
<path d="M793 843 c4 -6 4 -13 0 -16 -5 -2 -2 -2 4 -1 7 2 12 -2 10 -8 -1 -7
7 -13 18 -15 14 -3 16 -2 7 5 -10 7 -5 12 18 22 17 7 29 15 27 17 -3 2 -16 -2
-30 -8 -21 -10 -30 -9 -44 2 -9 8 -14 9 -10 2z"/>
<path d="M1200 836 c0 -2 8 -10 18 -17 15 -13 16 -12 3 4 -13 16 -21 21 -21
13z"/>
<path d="M910 810 c0 -5 5 -10 11 -10 5 0 7 5 4 10 -3 6 -8 10 -11 10 -2 0 -4
-4 -4 -10z"/>
<path d="M1160 809 c-12 -8 -9 -9 13 -5 20 5 27 3 27 -9 0 -9 5 -13 10 -10 8
5 7 11 -1 21 -14 17 -29 18 -49 3z"/>
<path d="M786 795 c4 -8 8 -15 10 -15 2 0 4 7 4 15 0 8 -4 15 -10 15 -5 0 -7
-7 -4 -15z"/>
<path d="M1242 780 c7 -11 16 -20 20 -20 5 0 3 9 -4 20 -7 11 -16 20 -20 20
-5 0 -3 -9 4 -20z"/>
<path d="M784 755 c-3 -8 -7 -34 -9 -57 -1 -24 -6 -62 -10 -84 -5 -28 -3 -44
4 -49 8 -5 10 1 5 19 -3 13 -2 31 2 38 4 7 9 31 11 53 2 22 5 52 8 68 5 29 -2
37 -11 12z"/>
<path d="M1280 756 c0 -2 8 -10 18 -17 15 -13 16 -12 3 4 -13 16 -21 21 -21
13z"/>
<path d="M1240 729 c-12 -8 -9 -9 13 -5 20 5 27 3 27 -9 0 -9 5 -13 10 -10 8
5 7 11 -1 21 -14 17 -29 18 -49 3z"/>
<path d="M751 704 c0 -11 3 -14 6 -6 3 7 2 16 -1 19 -3 4 -6 -2 -5 -13z"/>
<path d="M1322 700 c7 -11 16 -20 20 -20 5 0 3 9 -4 20 -7 11 -16 20 -20 20
-5 0 -3 -9 4 -20z"/>
<path d="M742 652 c1 -19 -5 -38 -13 -43 -10 -6 -11 -9 -1 -9 18 0 34 48 23
68 -8 13 -10 9 -9 -16z"/>
<path d="M1375 660 c10 -11 20 -20 23 -20 3 0 -3 9 -13 20 -10 11 -20 20 -23
20 -3 0 3 -9 13 -20z"/>
<path d="M1320 650 c-13 -9 -13 -10 0 -10 8 0 22 5 30 10 13 9 13 10 0 10 -8
0 -22 -5 -30 -10z"/>
<path d="M1369 626 c-7 -5 -3 -56 5 -56 5 0 6 -3 2 -7 -7 -8 -12 -9 -38 -12
-9 -1 -9 -4 0 -13 9 -9 16 -7 32 7 11 10 17 22 14 27 -3 5 0 8 8 6 7 -2 14 2
14 7 0 6 -7 8 -15 7 -13 -3 -13 -1 -2 12 11 13 17 14 30 4 13 -10 14 -10 4 2
-10 11 -46 21 -54 16z"/>
<path d="M791 604 c0 -11 3 -14 6 -6 3 7 2 16 -1 19 -3 4 -6 -2 -5 -13z"/>
<path d="M1280 435 l-165 -165 -224 60 c-123 34 -225 59 -227 57 -3 -3 -104
-376 -104 -384 0 -2 139 -3 309 -3 286 0 310 1 314 18 4 16 5 16 6 0 1 -17 35
-18 576 -18 316 0 575 2 575 5 0 11 -99 378 -104 382 -4 4 -275 -64 -386 -98
l-64 -20 -166 166 c-91 91 -167 165 -170 165 -3 0 -79 -74 -170 -165z m-153
-197 c-3 -8 -6 -5 -6 6 -1 11 2 17 5 13 3 -3 4 -12 1 -19z m20 -80 c-3 -8 -6
-5 -6 6 -1 11 2 17 5 13 3 -3 4 -12 1 -19z"/>
<path d="M730 570 c0 -5 5 -10 11 -10 5 0 7 5 4 10 -3 6 -8 10 -11 10 -2 0 -4
-4 -4 -10z"/>
<path d="M1287 554 c-12 -13 -7 -24 8 -18 8 4 15 1 15 -5 0 -6 -4 -11 -9 -11
-5 0 -12 -8 -15 -17 -6 -15 -4 -15 14 2 11 10 20 14 20 8 0 -11 -39 -50 -46
-45 -2 1 -9 2 -16 2 -9 0 -9 -3 0 -12 10 -10 20 -5 46 22 l34 35 -22 23 c-12
12 -25 19 -29 16z"/>
<path d="M701 520 c0 -8 4 -24 9 -35 l9 -20 0 20 c0 11 -4 27 -9 35 -9 13 -10
13 -9 0z"/>
<path d="M1207 474 c-12 -13 -7 -24 8 -18 8 4 15 1 15 -5 0 -6 -4 -11 -9 -11
-5 0 -12 -8 -15 -17 -6 -15 -4 -15 14 2 11 10 20 14 20 8 0 -11 -39 -50 -46
-45 -2 1 -9 2 -16 2 -9 0 -9 -3 0 -12 10 -10 20 -5 46 22 l34 35 -22 23 c-12
12 -25 19 -29 16z"/>
<path d="M691 433 c-1 -12 -4 -23 -8 -26 -5 -2 -2 -2 5 -1 6 2 12 -2 12 -8 0
-6 2 -9 5 -7 2 3 0 18 -4 35 -7 23 -9 25 -10 7z"/>
<path d="M855 384 c-39 -20 -46 -28 -15 -19 14 5 42 7 63 6 20 -1 37 3 37 8 0
6 -14 8 -32 6 -26 -4 -29 -3 -13 4 14 7 15 10 5 10 -8 1 -28 -6 -45 -15z"/>
<path d="M1127 394 c-12 -13 -7 -24 8 -18 8 4 15 1 15 -5 0 -6 -4 -11 -9 -11
-5 0 -12 -8 -15 -17 -6 -15 -4 -15 14 2 11 10 20 14 20 8 0 -16 -36 -44 -45
-36 -4 5 -5 3 -2 -4 4 -6 2 -13 -5 -15 -7 -3 -8 -7 -3 -10 6 -2 24 11 41 31
l31 36 -21 23 c-12 12 -25 19 -29 16z"/>
<path d="M790 380 c0 -5 7 -7 15 -4 8 4 15 8 15 10 0 2 -7 4 -15 4 -8 0 -15
-4 -15 -10z"/>
<path d="M915 345 c50 -18 57 -18 25 0 -14 8 -34 14 -45 14 -11 0 -2 -6 20
-14z"/>
<path d="M1068 303 c7 -3 16 -2 19 1 4 3 -2 6 -13 5 -11 0 -14 -3 -6 -6z"/>
</g>
</svg>
