<svg version="1.1" xmlns="http://www.w3.org/2000/svg" xmlns:xlink="http://www.w3.org/1999/xlink" width="800" height="800"><defs/><g transform="scale(2,2)"><g id="background-67120345"><rect fill="white" stroke="none" x="0" y="0" width="400" height="400" class="dcg-svg-background"/></g><g id="background-images-67120345"/><g id="graphpaper-67120345"><g id="axis-67120345"><g><g><path fill="none" stroke="rgb(0,0,0)" class="dcg-svg-tickmark" paint-order="fill stroke markers" d="" stroke-opacity="0.9" stroke-miterlimit="2" stroke-width="1.5" stroke-dasharray=""/></g></g></g></g><g id="expressions-67120345"><g id="sketch-67120345"><title>0</title></g><g id="sketch-67120345"><title>1</title></g><g id="sketch-67120345"><title>nu</title></g><g id="sketch-67120345"><title>varphi</title></g><g id="sketch-67120345"><title>varphi squared</title></g><g id="sketch-67120345"><title>varphi cubed</title></g><g id="sketch-67120345"><title>Expression 33</title><path fill="#000000" stroke="none" paint-order="stroke fill markers" d="" fill-opacity="0.4"/><g><path fill="none" stroke="#000000" class="dcg-svg-curve" paint-order="fill stroke markers" d=" M 356.62946235559434 202.51358200791864 L 356.62946235559434 202.51358200791864 L 356.5178288102403 196.59193991946336 L 356.18308681155463 190.67871280844105 L 355.6257120462341 184.78230369414126 L 354.8464965743192 178.91109169656005 L 353.8465477036332 173.0734201292117 L 352.6272864162374 167.27758464282397 L 351.1904453491377 161.5318214367643 L 349.53806633211275 155.84429555494984 L 347.6724974861619 150.22308928287345 L 345.59638988669707 144.67619066223347 L 343.31269379621915 139.2114821394896 L 340.82465447183404 133.83672936447508 L 338.13580755356406 128.5595701549833 L 335.2499740400107 123.38750364301097 L 331.6396854657273 117.49604814204473 L 327.77385206379506 111.76902765858458 L 323.6599508610604 106.21751899844497 L 319.30593867990484 100.85225950464451 L 314.7202367487113 95.68362628998183 L 309.9117144141078 90.72161616634374 L 304.88967198649306 85.97582630956494 L 299.6638227520205 81.45543569723624 L 294.2442741858341 77.16918735536268 L 288.6415084028911 73.125371448209 L 282.86636188418186 69.33180924403888 L 276.9300045175605 65.7958379877604 L 270.8439179937221 62.52429670973578 L 264.61987359911285 59.523512998203074 L 258.2699094487244 56.79929076089408 L 251.8063072028068 54.356898999518364 L 245.24156831253288 52.20106161882558 L 238.5883898405586 50.335948289956775 L 231.85963990324478 48.76516638575529 L 225.06833278203948 47.49175400363674 L 218.22760375215682 46.51817408951149 L 211.35068367723923 45.84630967412562 L 204.4508734191381 45.47746023103332 L 198.52864680919106 45.40303541898419 L 192.6078230185177 45.55187329054189 L 186.6968158617051 45.92376233894669 L 179.82425295214932 46.63882217117458 L 172.9897760951636 47.65536415298996 L 166.20660406187096 48.97142215939516 L 159.48785639316282 50.58445076227105 L 152.84652802479286 52.4913301535675 L 146.29546415347352 54.68837217941996 L 139.84733539258758 57.17132747352056 L 133.5146132655662 59.93539367594792 L 127.30954608433373 62.97522472155859 L 121.24413525947186 66.28494117997542 L 115.33011208792382 69.85814162717406 L 109.57891506313376 73.6879150266733 L 104.00166775150538 77.76685409638257 L 98.60915727797189 82.0870696352532 L 93.41181346228699 86.64020578202377 L 88.41968864639067 91.41745617654769 L 83.64243825186676 96.409580992444 L 79.0893021050962 101.60692480812891 L 74.76908656622557 106.9994352816624 L 70.69014749651629 112.57668259329078 L 66.86037409701706 118.32787961808084 L 63.287173649818385 124.24190278962887 L 59.977457191401555 130.30731361449074 L 57.355135566278165 135.61784431929073 L 54.93483204475274 141.0234375278022 L 52.719986010565634 146.51641159628812 L 50.71374488112514 152.08896070802814 L 48.91895963485533 157.73316596581122 L 47.33818075979974 163.4410066451217 L 45.973654629238126 169.20437159202794 L 44.827320309467325 175.01507074957593 L 43.90080680428176 180.86484679630814 L 43.19543074007004 186.7453868803694 L 42.71219449481674 192.64833443252388 L 42.45178477366852 198.56530104129774 L 42.41457163308843 204.4878783733705 L 42.60060795498546 210.40765012227672 L 43.00962937156655 216.31620396843834 L 43.64105464101755 222.20514353353093 L 44.49398647347971 228.06610031219648 L 45.567212806147694 233.89074556414806 L 46.85920852567713 239.67080214976477 L 48.36813763545399 245.3980562923606 L 50.09185586464656 251.0643692504104 L 52.027913715331294 256.6616888831467 L 54.17355994336353 262.1820610930927 L 56.52574546804601 267.61764112926977 L 59.081127705039364 272.96070473501806 L 61.83607531635738 278.20365912458766 L 65.29717088377922 284.1839809372195 L 69.01786284273882 290.00634152859476 L 72.99095488890242 295.6594796926749 L 77.20876254319303 301.13246152170325 L 81.6631280145771 306.4147015538116 L 86.34543597829791 311.49598324668625 L 91.24663023903945 316.36647873769556 L 96.35723124679093 321.01676785226 L 101.6673544315353 325.4378563237008 L 107.16672932129889 329.62119318932673 L 112.84471940658592 333.5586873291127 L 118.69034271277752 337.2427231149834 L 124.69229304070551 340.66617514043287 L 130.8389618343181 343.8224220019911 L 137.1184606331447 346.7053591058839 L 143.51864406613103 349.3094104751146 L 150.0271333423739 351.6295395341323 L 156.63134019331955 353.6612588502262 L 163.31849122011988 355.4006388128078 L 170.07565259905468 356.8443152337902 L 176.8897550972359 357.989495854368 L 183.74761935021235 358.8339657456102 L 190.63598135258164 359.37609159242254 L 196.55446735726844 359.59931902026347 L 202.47716159825472 359.59931902026347 L 208.39564760294152 359.37609159242254 L 215.2840096053108 358.8339657456102 L 222.14187385828725 357.989495854368 L 228.95597635646848 356.8443152337902 L 235.71313773540328 355.4006388128078 L 242.40028876220362 353.6612588502262 L 249.00449561314926 351.6295395341323 L 255.51298488939216 349.30941047511465 L 261.91316832237845 346.7053591058839 L 268.1926671212051 343.8224220019911 L 274.33933591481764 340.66617514043287 L 280.34128624274564 337.2427231149835 L 286.18690954893725 333.55868732911273 L 291.8648996342243 329.62119318932673 L 297.3642745239879 325.4378563237009 L 302.6743977087323 321.01676785226005 L 307.78499871648376 316.3664787376956 L 312.68619297722523 311.49598324668636 L 317.36850094094603 306.4147015538117 L 321.8228664123302 301.1324615217032 L 326.0406740666208 295.6594796926749 L 330.01376611278437 290.0063415285948 L 333.734458071744 284.18398093721953 L 337.19555363916584 278.2036591245877 L 340.39035860405204 272.07694281437676 L 342.91211916213575 266.7179288416475 L 345.23010572478614 261.26767697888147 L 347.34102430626024 255.73393233220688 L 349.2418751757468 250.1245586555665 L 350.92995712014795 244.44752717589324 L 352.4028712826508 238.7109052655604 L 353.6585245716343 232.92284497820341 L 354.695132635067 227.09157146420665 L 355.51122239616876 221.22537128231386 L 356.10563414673356 215.33258062397525 L 356.47752319513836 209.42157346716257 L 356.62636106669606 203.5007496764892 L 356.62946235559434 202.51358200791864" stroke-linecap="round" stroke-linejoin="round" stroke-miterlimit="10" stroke-opacity="0.5" stroke-dasharray=""/></g></g><g id="sketch-67120345"><title>Expression 34</title><path fill="#c74440" stroke="none" paint-order="stroke fill markers" d="" fill-opacity="0.4"/><g><path fill="none" stroke="#c74440" class="dcg-svg-curve" paint-order="fill stroke markers" d=" M 199.5158144777616 202.51358200791864 L 356.62946235559434 202.51358200791864 M 356.62946235559434 202.51358200791864 L 351.7430607275076 204.29208675321212 L 351.7430607275076 200.73507726262517 L 356.62946235559434 202.51358200791864 L 353.4780775459553 203.06925617645283 L 353.4780775459553 201.95790783938446 L 356.62946235559434 202.51358200791864" stroke-linecap="round" stroke-linejoin="round" stroke-miterlimit="10" stroke-dasharray=""/></g></g><g id="sketch-67120345"><title>Expression 35</title><path fill="#c74440" stroke="none" paint-order="stroke fill markers" d="" fill-opacity="0.4"/><g><path fill="none" stroke="#c74440" class="dcg-svg-curve" paint-order="fill stroke markers" d=" M 199.5158144777616 202.51358200791864 L 335.5802248212078 123.95675806900225 M 335.5802248212078 123.95675806900225 L 332.23772925083784 127.94018917322093 L 330.45922450554434 124.85972859287028 L 335.5802248212078 123.95675806900225 L 333.1288826032271 126.01367841999918 L 332.5732084346929 125.05122252764438 L 335.5802248212078 123.95675806900225" stroke-linecap="round" stroke-linejoin="round" stroke-miterlimit="10" stroke-dasharray=""/></g></g><g id="sketch-67120345"><title>Expression 36</title><path fill="#c74440" stroke="none" paint-order="stroke fill markers" d="" fill-opacity="0.4"/><g><path fill="none" stroke="#c74440" class="dcg-svg-curve" paint-order="fill stroke markers" d=" M 199.5158144777616 202.51358200791864 L 278.07263841667793 66.4491716644724 M 278.07263841667793 66.4491716644724 L 277.1696678928099 71.57017198013588 L 274.0892073124592 69.79166723484241 L 278.07263841667793 66.4491716644724 L 276.97817395803577 69.45618805098731 L 276.015718065681 68.90051388245314 L 278.07263841667793 66.4491716644724" stroke-linecap="round" stroke-linejoin="round" stroke-miterlimit="10" stroke-dasharray=""/></g></g><g id="sketch-67120345"><title>Expression 37</title><path fill="#c74440" stroke="none" paint-order="stroke fill markers" d="" fill-opacity="0.4"/><g><path fill="none" stroke="#c74440" class="dcg-svg-curve" paint-order="fill stroke markers" d=" M 199.5158144777616 202.51358200791864 L 199.5158144777616 45.39993413008585 M 199.5158144777616 45.39993413008585 L 201.29431922305508 50.28633575817258 L 197.73730973246813 50.28633575817258 L 199.5158144777616 45.39993413008585 L 200.0714886462958 48.55131893972492 L 198.96014030922743 48.55131893972492 L 199.5158144777616 45.39993413008585" stroke-linecap="round" stroke-linejoin="round" stroke-miterlimit="10" stroke-dasharray=""/></g></g><g id="sketch-67120345"><title>Expression 38</title><path fill="#6042a6" stroke="none" paint-order="stroke fill markers" d="" fill-opacity="0.4"/><g><path fill="none" stroke="#6042a6" class="dcg-svg-curve" paint-order="fill stroke markers" d=" M 199.5158144777616 202.51358200791864 L 356.62946235559434 202.51358200791864" stroke-linecap="round" stroke-linejoin="round" stroke-miterlimit="10" stroke-dasharray=""/></g><path fill="#6042a6" stroke="none" paint-order="stroke fill markers" d="" fill-opacity="0.4"/><g><path fill="none" stroke="#6042a6" class="dcg-svg-curve" paint-order="fill stroke markers" d=" M 356.62946235559434 202.51358200791864 L 356.62946235559434 202.51358200791864" stroke-linecap="round" stroke-linejoin="round" stroke-miterlimit="10" stroke-dasharray=""/></g><path fill="#6042a6" stroke="none" paint-order="stroke fill markers" d="" fill-opacity="0.4"/><g><path fill="none" stroke="#6042a6" class="dcg-svg-curve" paint-order="fill stroke markers" d=" M 356.62946235559434 202.51358200791864 L 278.07263841667805 338.57799235136486" stroke-linecap="round" stroke-linejoin="round" stroke-miterlimit="10" stroke-dasharray=""/></g><path fill="#6042a6" stroke="none" paint-order="stroke fill markers" d="" fill-opacity="0.4"/><g><path fill="none" stroke="#6042a6" class="dcg-svg-curve" paint-order="fill stroke markers" d=" M 278.07263841667805 338.57799235136486 L 278.07263841667805 181.4643444735321" stroke-linecap="round" stroke-linejoin="round" stroke-miterlimit="10" stroke-dasharray=""/></g></g><g id="sketch-67120345"><title>Expression 39</title><path fill="none" stroke="#6042a6" class="dcg-svg-point" paint-order="fill stroke markers" d=" M 356.5294623555943 202.41358200791865 L 356.5294623555943 202.61358200791864 L 356.72946235559436 202.61358200791864 L 356.72946235559436 202.41358200791865" stroke-linecap="round" stroke-linejoin="round" stroke-miterlimit="10" stroke-width="3" stroke-dasharray=""/><path fill="none" stroke="#6042a6" class="dcg-svg-point" paint-order="fill stroke markers" d=" M 356.5294623555943 202.41358200791865 L 356.5294623555943 202.61358200791864 L 356.72946235559436 202.61358200791864 L 356.72946235559436 202.41358200791865" stroke-linecap="round" stroke-linejoin="round" stroke-miterlimit="10" stroke-width="3" stroke-dasharray=""/><path fill="none" stroke="#6042a6" class="dcg-svg-point" paint-order="fill stroke markers" d=" M 277.972638416678 338.47799235136483 L 277.972638416678 338.6779923513649 L 278.17263841667807 338.6779923513649 L 278.17263841667807 338.47799235136483" stroke-linecap="round" stroke-linejoin="round" stroke-miterlimit="10" stroke-width="3" stroke-dasharray=""/><path fill="none" stroke="#6042a6" class="dcg-svg-point" paint-order="fill stroke markers" d=" M 277.972638416678 181.3643444735321 L 277.972638416678 181.5643444735321 L 278.17263841667807 181.5643444735321 L 278.17263841667807 181.3643444735321" stroke-linecap="round" stroke-linejoin="round" stroke-miterlimit="10" stroke-width="3" stroke-dasharray=""/></g></g><g id="labels-67120345"><g transform="rotate(0,0,0) translate(199.5158144777616,202.51358200791864)"><g class="dcg-svg-label"><g transform="translate(-999.5158144777616,-1000.5135820079187)"><g><text fill="none" stroke="#FFF" font-family="Symbola, &quot;Times New Roman&quot;, serif" font-size="17.71px" font-style="normal" font-weight="400" text-decoration="normal" x="0" y="13.962119999999999" text-anchor="start" stroke-linecap="round" stroke-linejoin="round" stroke-miterlimit="2" stroke-width="3" stroke-dasharray="">0</text></g></g><g transform="translate(2.6404355222383913,1.486417992081357)"><g><text fill="none" stroke="#FFF" font-family="Symbola, &quot;Times New Roman&quot;, serif" font-size="17.71px" font-style="normal" font-weight="400" text-decoration="normal" x="0" y="13.962119999999999" text-anchor="start" stroke-linecap="round" stroke-linejoin="round" stroke-miterlimit="2" stroke-width="3" stroke-dasharray="">0</text></g></g><g transform="translate(-999.5158144777616,-1000.5135820079187)"><g><text fill="rgb(199, 68, 64)" stroke="none" font-family="Symbola, &quot;Times New Roman&quot;, serif" font-size="17.71px" font-style="normal" font-weight="400" text-decoration="normal" x="0" y="13.962119999999999" text-anchor="start">0</text></g></g><g transform="translate(2.6404355222383913,1.486417992081357)"><g><text fill="rgb(199, 68, 64)" stroke="none" font-family="Symbola, &quot;Times New Roman&quot;, serif" font-size="17.71px" font-style="normal" font-weight="400" text-decoration="normal" x="0" y="13.962119999999999" text-anchor="start">0</text></g></g></g></g><g transform="rotate(0,0,0) translate(356.62946235559434,202.51358200791864)"><g class="dcg-svg-label"><g transform="translate(-999.6294623555943,-1000.5135820079187)"><g><text fill="none" stroke="#FFF" font-family="Symbola, &quot;Times New Roman&quot;, serif" font-size="17.71px" font-style="normal" font-weight="400" text-decoration="normal" x="0" y="13.962119999999999" text-anchor="start" stroke-linecap="round" stroke-linejoin="round" stroke-miterlimit="2" stroke-width="3" stroke-dasharray="">1</text></g></g><g transform="translate(2.5267876444056583,1.486417992081357)"><g><text fill="none" stroke="#FFF" font-family="Symbola, &quot;Times New Roman&quot;, serif" font-size="17.71px" font-style="normal" font-weight="400" text-decoration="normal" x="0" y="13.962119999999999" text-anchor="start" stroke-linecap="round" stroke-linejoin="round" stroke-miterlimit="2" stroke-width="3" stroke-dasharray="">1</text></g></g><g transform="translate(-999.6294623555943,-1000.5135820079187)"><g><text fill="rgb(199, 68, 64)" stroke="none" font-family="Symbola, &quot;Times New Roman&quot;, serif" font-size="17.71px" font-style="normal" font-weight="400" text-decoration="normal" x="0" y="13.962119999999999" text-anchor="start">1</text></g></g><g transform="translate(2.5267876444056583,1.486417992081357)"><g><text fill="rgb(199, 68, 64)" stroke="none" font-family="Symbola, &quot;Times New Roman&quot;, serif" font-size="17.71px" font-style="normal" font-weight="400" text-decoration="normal" x="0" y="13.962119999999999" text-anchor="start">1</text></g></g></g></g><g transform="rotate(0,0,0) translate(278.072638416678,181.4643444735321)"><g class="dcg-svg-label"><g transform="translate(-1006.002325916678,-1023.167469473532)"><g><text fill="none" stroke="#FFF" font-family="Symbola, &quot;Times New Roman&quot;, serif" font-size="17.71px" font-style="normal" font-weight="400" text-decoration="normal" x="0" y="13.962119999999999" text-anchor="start" stroke-linecap="round" stroke-linejoin="round" stroke-miterlimit="2" stroke-width="3" stroke-dasharray="">nu</text></g></g><g transform="translate(-4.002325916677989,-23.167469473532094)"><g><text fill="none" stroke="#FFF" font-family="&quot;Times New Roman&quot;, Symbola, serif" font-size="17.71px" font-style="italic" font-weight="400" text-decoration="normal" x="0" y="15.962119999999999" text-anchor="start" stroke-linecap="round" stroke-linejoin="round" stroke-miterlimit="2" stroke-width="3" stroke-dasharray="">ν</text></g></g><g transform="translate(-1006.002325916678,-1023.167469473532)"><g><text fill="rgb(0, 0, 0)" stroke="none" font-family="Symbola, &quot;Times New Roman&quot;, serif" font-size="17.71px" font-style="normal" font-weight="400" text-decoration="normal" x="0" y="13.962119999999999" text-anchor="start">nu</text></g></g><g transform="translate(-4.002325916677989,-23.167469473532094)"><g><text fill="rgb(0, 0, 0)" stroke="none" font-family="&quot;Times New Roman&quot;, Symbola, serif" font-size="17.71px" font-style="italic" font-weight="400" text-decoration="normal" x="0" y="15.962119999999999" text-anchor="start">ν</text></g></g></g></g><g transform="rotate(0,0,0) translate(335.5802248212078,123.95675806900225)"><g class="dcg-svg-label"><g transform="translate(-999.5802248212078,-1022.6598830690023)"><g><text fill="none" stroke="#FFF" font-family="Symbola, &quot;Times New Roman&quot;, serif" font-size="17.71px" font-style="normal" font-weight="400" text-decoration="normal" x="0" y="13.962119999999999" text-anchor="start" stroke-linecap="round" stroke-linejoin="round" stroke-miterlimit="2" stroke-width="3" stroke-dasharray="">varphi</text></g></g><g transform="translate(2.419775178792179,-22.659883069002248)"><g><text fill="none" stroke="#FFF" font-family="&quot;Times New Roman&quot;, Symbola, serif" font-size="17.71px" font-style="italic" font-weight="400" text-decoration="normal" x="0" y="15.962119999999999" text-anchor="start" stroke-linecap="round" stroke-linejoin="round" stroke-miterlimit="2" stroke-width="3" stroke-dasharray="">φ</text></g></g><g transform="translate(-999.5802248212078,-1022.6598830690023)"><g><text fill="rgb(199, 68, 64)" stroke="none" font-family="Symbola, &quot;Times New Roman&quot;, serif" font-size="17.71px" font-style="normal" font-weight="400" text-decoration="normal" x="0" y="13.962119999999999" text-anchor="start">varphi</text></g></g><g transform="translate(2.419775178792179,-22.659883069002248)"><g><text fill="rgb(199, 68, 64)" stroke="none" font-family="&quot;Times New Roman&quot;, Symbola, serif" font-size="17.71px" font-style="italic" font-weight="400" text-decoration="normal" x="0" y="15.962119999999999" text-anchor="start">φ</text></g></g></g></g><g transform="rotate(0,0,0) translate(278.07263841667793,66.4491716644724)"><g class="dcg-svg-label"><g transform="translate(-1000.0726384166779,-1031.0585466644725)"><g><text fill="none" stroke="#FFF" font-family="Symbola, &quot;Times New Roman&quot;, serif" font-size="17.71px" font-style="normal" font-weight="400" text-decoration="normal" x="0" y="13.962119999999999" text-anchor="start" stroke-linecap="round" stroke-linejoin="round" stroke-miterlimit="2" stroke-width="3" stroke-dasharray="">varphi squared</text></g></g><g transform="translate(1.9273615833220674,-23.152296664472402)"><g><text fill="none" stroke="#FFF" font-family="&quot;Times New Roman&quot;, Symbola, serif" font-size="17.71px" font-style="italic" font-weight="400" text-decoration="normal" x="0" y="15.962119999999999" text-anchor="start" stroke-linecap="round" stroke-linejoin="round" stroke-miterlimit="2" stroke-width="3" stroke-dasharray="">φ</text></g></g><g transform="translate(11.864861583322067,-28.058546664472402)"><g><text fill="none" stroke="#FFF" font-family="Symbola, &quot;Times New Roman&quot;, serif" font-size="15.939px" font-style="normal" font-weight="400" text-decoration="normal" x="0" y="11.365908" text-anchor="start" stroke-linecap="round" stroke-linejoin="round" stroke-miterlimit="2" stroke-width="3" stroke-dasharray="">2</text></g></g><g transform="translate(-1000.0726384166779,-1031.0585466644725)"><g><text fill="rgb(199, 68, 64)" stroke="none" font-family="Symbola, &quot;Times New Roman&quot;, serif" font-size="17.71px" font-style="normal" font-weight="400" text-decoration="normal" x="0" y="13.962119999999999" text-anchor="start">varphi squared</text></g></g><g transform="translate(1.9273615833220674,-23.152296664472402)"><g><text fill="rgb(199, 68, 64)" stroke="none" font-family="&quot;Times New Roman&quot;, Symbola, serif" font-size="17.71px" font-style="italic" font-weight="400" text-decoration="normal" x="0" y="15.962119999999999" text-anchor="start">φ</text></g></g><g transform="translate(11.864861583322067,-28.058546664472402)"><g><text fill="rgb(199, 68, 64)" stroke="none" font-family="Symbola, &quot;Times New Roman&quot;, serif" font-size="15.939px" font-style="normal" font-weight="400" text-decoration="normal" x="0" y="11.365908" text-anchor="start">2</text></g></g></g></g><g transform="rotate(0,0,0) translate(199.5158144777616,45.39993413008585)"><g class="dcg-svg-label"><g transform="translate(-1010.6173769777616,-1031.009309130086)"><g><text fill="none" stroke="#FFF" font-family="Symbola, &quot;Times New Roman&quot;, serif" font-size="17.71px" font-style="normal" font-weight="400" text-decoration="normal" x="0" y="13.962119999999999" text-anchor="start" stroke-linecap="round" stroke-linejoin="round" stroke-miterlimit="2" stroke-width="3" stroke-dasharray="">varphi cubed</text></g></g><g transform="translate(-8.617376977761609,-23.103059130085853)"><g><text fill="none" stroke="#FFF" font-family="&quot;Times New Roman&quot;, Symbola, serif" font-size="17.71px" font-style="italic" font-weight="400" text-decoration="normal" x="0" y="15.962119999999999" text-anchor="start" stroke-linecap="round" stroke-linejoin="round" stroke-miterlimit="2" stroke-width="3" stroke-dasharray="">φ</text></g></g><g transform="translate(1.3201230222383913,-28.009309130085853)"><g><text fill="none" stroke="#FFF" font-family="Symbola, &quot;Times New Roman&quot;, serif" font-size="15.939px" font-style="normal" font-weight="400" text-decoration="normal" x="0" y="11.365908" text-anchor="start" stroke-linecap="round" stroke-linejoin="round" stroke-miterlimit="2" stroke-width="3" stroke-dasharray="">3</text></g></g><g transform="translate(-1010.6173769777616,-1031.009309130086)"><g><text fill="rgb(199, 68, 64)" stroke="none" font-family="Symbola, &quot;Times New Roman&quot;, serif" font-size="17.71px" font-style="normal" font-weight="400" text-decoration="normal" x="0" y="13.962119999999999" text-anchor="start">varphi cubed</text></g></g><g transform="translate(-8.617376977761609,-23.103059130085853)"><g><text fill="rgb(199, 68, 64)" stroke="none" font-family="&quot;Times New Roman&quot;, Symbola, serif" font-size="17.71px" font-style="italic" font-weight="400" text-decoration="normal" x="0" y="15.962119999999999" text-anchor="start">φ</text></g></g><g transform="translate(1.3201230222383913,-28.009309130085853)"><g><text fill="rgb(199, 68, 64)" stroke="none" font-family="Symbola, &quot;Times New Roman&quot;, serif" font-size="15.939px" font-style="normal" font-weight="400" text-decoration="normal" x="0" y="11.365908" text-anchor="start">3</text></g></g></g></g></g></g></svg>