<svg version="1.1" xmlns="http://www.w3.org/2000/svg" xmlns:xlink="http://www.w3.org/1999/xlink" width="800" height="800"><defs/><g transform="scale(2,2)"><g id="background-bc4f5eb3"><rect fill="white" stroke="none" x="0" y="0" width="400" height="400" class="dcg-svg-background"/></g><g id="background-images-bc4f5eb3"/><g id="graphpaper-bc4f5eb3"><g id="axis-bc4f5eb3"><g><g><path fill="none" stroke="rgb(0,0,0)" class="dcg-svg-tickmark" paint-order="fill stroke markers" d="" stroke-opacity="0.9" stroke-miterlimit="2" stroke-width="1.5" stroke-dasharray=""/></g></g></g></g><g id="expressions-bc4f5eb3"><g id="sketch-bc4f5eb3"><title>0</title></g><g id="sketch-bc4f5eb3"><title>1</title></g><g id="sketch-bc4f5eb3"><title>nu</title></g><g id="sketch-bc4f5eb3"><title>varphi</title></g><g id="sketch-bc4f5eb3"><title>varphi squared</title></g><g id="sketch-bc4f5eb3"><title>varphi cubed</title></g><g id="sketch-bc4f5eb3"><title>Expression 33</title><path fill="#000000" stroke="none" paint-order="stroke fill markers" d="" fill-opacity="0.4"/><g><path fill="none" stroke="#000000" class="dcg-svg-curve" paint-order="fill stroke markers" d=" M 339.2726546923265 203.25925974819077 L 339.2726546923265 203.25925974819077 L 339.173768230006 198.01379132381516 L 338.87724936611835 192.77577699709644 L 338.3835194701943 187.55266027301084 L 337.6932801594323 182.35186348622608 L 336.807512301662 177.18077725355766 L 335.7274746214774 172.04674997149795 L 334.4547019115206 166.95707737374264 L 332.991002851457 161.9189921635541 L 331.3384574377428 156.93965373569404 L 329.4994140278362 152.02613800253198 L 327.1216517251106 146.38620511346903 L 324.4982116372805 140.8562721421788 L 321.63416784021183 135.44703470147894 L 318.5350597687775 130.16895496326285 L 315.2068815028668 125.03224142329232 L 311.65607017405165 120.04682915663324 L 307.334217317965 114.54683719383002 L 303.3299958759022 109.91771122834567 L 299.1261128193785 105.46912001218867 L 294.73069900743604 101.20966770195174 L 290.1522557446207 97.14759263487366 L 285.3996383383476 93.29075139481893 L 280.4820389715803 89.64660361661797 L 275.40896892394784 86.22219755815898 L 270.1902401756871 83.02415646813628 L 264.83594642999157 80.05866577582205 L 259.3564435904704 77.33146112763802 L 253.76232973147808 74.84781729366608 L 248.06442460005388 72.61253796555363 L 242.27374868911772 70.62994646554651 L 236.40150192239696 68.90387738461897 L 230.45904199231074 67.43766916587364 L 224.4578623927091 66.23415764755649 L 218.40957018895432 65.29567057817522 L 212.32586356834003 64.6240231143295 L 206.2185092142687 64.22051430996095 L 200.09931954794882 64.08592460381308 L 193.98012988162898 64.22051430996095 L 187.87277552755765 64.6240231143295 L 181.78906890694336 65.29567057817522 L 175.74077670318854 66.23415764755649 L 169.73959710358696 67.43766916587361 L 163.79713717350074 68.90387738461897 L 157.92489040677992 70.62994646554651 L 152.13421449584376 72.6125379655536 L 146.43630936441957 74.84781729366605 L 140.84219550542724 77.33146112763804 L 135.3626926659061 80.05866577582204 L 130.0083989202106 83.02415646813627 L 124.78967017194984 86.22219755815897 L 119.71660012431734 89.64660361661795 L 114.79900075755008 93.2907513948189 L 110.04638335127703 97.14759263487363 L 105.4679400884616 101.20966770195174 L 101.07252627651921 105.46912001218867 L 96.86864321999546 109.91771122834565 L 92.86442177793268 114.54683719382999 L 89.0676066377263 119.34754457425811 L 84.99175759303085 125.03224142329233 L 81.66357932712017 130.16895496326276 L 78.56447125568586 135.44703470147888 L 75.70042745861714 140.8562721421788 L 73.07698737078705 146.386205113469 L 70.69922506806148 152.02613800253192 L 68.57173945337365 157.76516244233815 L 66.95051255968656 162.7547857630647 L 65.51849740647563 167.8019681576811 L 64.27772896563167 172.8995373038289 L 63.229970437002606 178.04024927681826 L 62.37671074278964 183.216798843642 L 61.71916241170766 188.42182984411104 L 61.25825985591541 193.6479456443604 L 60.99465804316469 198.88771964787114 L 60.92873156605543 204.13370584906988 L 61.060574109719 209.3784494145106 L 61.389998318686565 214.61449727660073 L 61.9165360631315 219.83440872481768 L 62.63943910410745 225.03076597936624 L 63.55768015683677 230.1961847322492 L 64.66995435053843 235.32332464077297 L 65.97468108272088 240.4048997585765 L 67.47000626530459 245.4336888893597 L 69.15380495938263 250.4025458485982 L 71.02368439487526 255.30440961866296 L 73.43683627290672 260.92929135741525 L 76.094969941254 266.44263172080616 L 78.99294422213397 271.83376718828936 L 82.12515405468515 277.09227059955253 L 85.48554133588772 282.2079713220078 L 89.06760663772629 287.1709749221234 L 93.42393142544941 292.64370349610135 L 97.45715929248493 297.2475789868118 L 101.68891050701129 301.6696687891283 L 106.11100030932776 305.9014200036546 L 110.71487580003824 309.9346478706901 L 115.49163248247616 313.761551600624 L 120.43203148516427 317.37472946168134 L 125.52651743099922 320.7671930958399 L 130.76523691859882 323.9323810352269 L 136.13805758006814 326.86417139285567 L 141.6345876783225 329.5568937031544 L 147.2441962060645 332.0053398893875 L 152.9560334475413 334.20477433675694 L 158.75905196331212 336.15094305169896 L 164.64202795743915 337.84008188966396 L 170.59358298577575 339.2689238354641 L 176.6022059633637 340.43470532210677 L 182.6562754283753 341.3351715758947 L 188.74408201953884 341.96858097745303 L 194.85385112357315 342.33370843024795 L 200.97376564882785 342.42984773008413 L 207.09198888108267 342.2568129309958 L 213.19668737729853 341.8149387048903 L 219.2760538530432 341.10507969424896 L 225.3183300193213 340.128608859137 L 231.31182932464165 338.8874148217194 L 237.24495955833456 337.3838982134187 L 243.10624527140163 335.6209670317805 L 248.88434997153348 333.60203101602593 L 254.56809804936677 331.3309950521709 L 260.1464963935728 328.8122516204661 L 265.608755652971 326.0506722997666 L 270.94431110454366 323.05159834526165 L 276.1428430869905 319.8208303577896 L 281.1942969603017 316.3646170647178 L 286.0889025527455 312.6896432340877 L 290.81719305765625 308.8030167454002 L 295.370023343476 304.71225484204786 L 299.7385876416332 300.4252695919842 L 303.9144365780495 295.95035258475076 L 307.8894935153333 291.2961588944593 L 311.6560701740516 286.47169033974836 L 315.6961209962734 280.76149655543327 L 318.99195885611306 275.60397298660257 L 322.0578428189504 270.3065252909841 L 324.8878430646627 264.87939942449964 L 327.476486003053 259.33309215759505 L 329.8187648604884 253.67833077311485 L 331.626899642524 248.75335705404348 L 333.2481265362111 243.76373373331694 L 334.68014168942204 238.71655133870047 L 335.92091013026595 233.61898219255278 L 336.968668658895 228.4782702195633 L 337.821928353108 223.30172065273948 L 338.47947668419 218.09668965227058 L 338.94037923998224 212.87057385202115 L 339.20398105273296 207.63079984851043 L 339.2726546923265 203.25925974819077" stroke-linecap="round" stroke-linejoin="round" stroke-miterlimit="10" stroke-opacity="0.5" stroke-dasharray=""/></g></g><g id="sketch-bc4f5eb3"><title>Expression 34</title><path fill="#c74440" stroke="none" paint-order="stroke fill markers" d="" fill-opacity="0.4"/><g><path fill="none" stroke="#c74440" class="dcg-svg-curve" paint-order="fill stroke markers" d=" M 200.09931954794882 203.25925974819077 L 339.2726546923265 203.25925974819077 M 339.2726546923265 203.25925974819077 L 334.3862530642398 205.03776449348425 L 334.3862530642398 201.4807550028973 L 339.2726546923265 203.25925974819077 L 336.12126988268744 203.81493391672495 L 336.12126988268744 202.7035855796566 L 339.2726546923265 203.25925974819077" stroke-linecap="round" stroke-linejoin="round" stroke-miterlimit="10" stroke-dasharray=""/></g></g><g id="sketch-bc4f5eb3"><title>Expression 35</title><path fill="#c74440" stroke="none" paint-order="stroke fill markers" d="" fill-opacity="0.4"/><g><path fill="none" stroke="#c74440" class="dcg-svg-curve" paint-order="fill stroke markers" d=" M 200.09931954794882 203.25925974819077 L 320.6269633123855 133.6725921760019 M 320.6269633123855 133.6725921760019 L 317.2844677420155 137.65602328022058 L 315.505962996722 134.57556269986995 L 320.6269633123855 133.6725921760019 L 318.1756210944048 135.72951252699883 L 317.6199469258706 134.76705663464404 L 320.6269633123855 133.6725921760019" stroke-linecap="round" stroke-linejoin="round" stroke-miterlimit="10" stroke-dasharray=""/></g></g><g id="sketch-bc4f5eb3"><title>Expression 36</title><path fill="#c74440" stroke="none" paint-order="stroke fill markers" d="" fill-opacity="0.4"/><g><path fill="none" stroke="#c74440" class="dcg-svg-curve" paint-order="fill stroke markers" d=" M 200.09931954794882 203.25925974819077 L 269.6859871201376 82.73161598375404 M 269.6859871201376 82.73161598375404 L 268.7830165962696 87.85261629941752 L 265.7025560159189 86.07411155412404 L 269.6859871201376 82.73161598375404 L 268.59152266149545 85.73863237026895 L 267.6290667691407 85.18295820173478 L 269.6859871201376 82.73161598375404" stroke-linecap="round" stroke-linejoin="round" stroke-miterlimit="10" stroke-dasharray=""/></g></g><g id="sketch-bc4f5eb3"><title>Expression 37</title><path fill="#c74440" stroke="none" paint-order="stroke fill markers" d="" fill-opacity="0.4"/><g><path fill="none" stroke="#c74440" class="dcg-svg-curve" paint-order="fill stroke markers" d=" M 200.09931954794882 203.25925974819077 L 200.09931954794882 64.08592460381303 M 200.09931954794882 64.08592460381303 L 201.8778242932423 68.97232623189976 L 198.32081480265535 68.97232623189976 L 200.09931954794882 64.08592460381303 L 200.654993716483 67.2373094134521 L 199.54364537941464 67.2373094134521 L 200.09931954794882 64.08592460381303" stroke-linecap="round" stroke-linejoin="round" stroke-miterlimit="10" stroke-dasharray=""/></g></g><g id="sketch-bc4f5eb3"><title>Expression 46</title><path fill="#2d70b3" stroke="none" paint-order="stroke fill markers" d="" fill-opacity="0.4"/><g><path fill="none" stroke="#2d70b3" class="dcg-svg-curve" paint-order="fill stroke markers" d=" M 200.09931954794882 203.25925974819077 L 130.51265197576004 323.78690351262753" stroke-linecap="round" stroke-linejoin="round" stroke-miterlimit="10" stroke-dasharray=""/></g><path fill="#2d70b3" stroke="none" paint-order="stroke fill markers" d="" fill-opacity="0.4"/><g><path fill="none" stroke="#2d70b3" class="dcg-svg-curve" paint-order="fill stroke markers" d=" M 130.51265197576004 323.78690351262753 L 269.6859871201377 323.78690351262753" stroke-linecap="round" stroke-linejoin="round" stroke-miterlimit="10" stroke-dasharray=""/></g><path fill="#2d70b3" stroke="none" paint-order="stroke fill markers" d="" fill-opacity="0.4"/><g><path fill="none" stroke="#2d70b3" class="dcg-svg-curve" paint-order="fill stroke markers" d=" M 269.6859871201377 323.78690351262753 L 269.6859871201377 184.61356836824976" stroke-linecap="round" stroke-linejoin="round" stroke-miterlimit="10" stroke-dasharray=""/></g></g><g id="sketch-bc4f5eb3"><title>Expression 47</title><path fill="none" stroke="#2d70b3" class="dcg-svg-point" paint-order="fill stroke markers" d=" M 130.41265197576004 323.6869035126275 L 130.41265197576004 323.88690351262755 L 130.61265197576003 323.88690351262755 L 130.61265197576003 323.6869035126275" stroke-linecap="round" stroke-linejoin="round" stroke-miterlimit="10" stroke-width="3" stroke-dasharray=""/><path fill="none" stroke="#2d70b3" class="dcg-svg-point" paint-order="fill stroke markers" d=" M 269.5859871201377 323.6869035126275 L 269.5859871201377 323.88690351262755 L 269.78598712013775 323.88690351262755 L 269.78598712013775 323.6869035126275" stroke-linecap="round" stroke-linejoin="round" stroke-miterlimit="10" stroke-width="3" stroke-dasharray=""/><path fill="none" stroke="#2d70b3" class="dcg-svg-point" paint-order="fill stroke markers" d=" M 269.5859871201377 184.51356836824976 L 269.5859871201377 184.71356836824975 L 269.78598712013775 184.71356836824975 L 269.78598712013775 184.51356836824976" stroke-linecap="round" stroke-linejoin="round" stroke-miterlimit="10" stroke-width="3" stroke-dasharray=""/></g></g><g id="labels-bc4f5eb3"><g transform="rotate(0,0,0) translate(200.09931954794882,203.25925974819077)"><g class="dcg-svg-label"><g transform="translate(-1000.0993195479489,-1001.2592597481907)"><g><text fill="none" stroke="#FFF" font-family="Symbola, &quot;Times New Roman&quot;, serif" font-size="17.71px" font-style="normal" font-weight="400" text-decoration="normal" x="0" y="13.962119999999999" text-anchor="start" stroke-linecap="round" stroke-linejoin="round" stroke-miterlimit="2" stroke-width="3" stroke-dasharray="">0</text></g></g><g transform="translate(2.0569304520511764,0.7407402518092283)"><g><text fill="none" stroke="#FFF" font-family="Symbola, &quot;Times New Roman&quot;, serif" font-size="17.71px" font-style="normal" font-weight="400" text-decoration="normal" x="0" y="13.962119999999999" text-anchor="start" stroke-linecap="round" stroke-linejoin="round" stroke-miterlimit="2" stroke-width="3" stroke-dasharray="">0</text></g></g><g transform="translate(-1000.0993195479489,-1001.2592597481907)"><g><text fill="rgb(199, 68, 64)" stroke="none" font-family="Symbola, &quot;Times New Roman&quot;, serif" font-size="17.71px" font-style="normal" font-weight="400" text-decoration="normal" x="0" y="13.962119999999999" text-anchor="start">0</text></g></g><g transform="translate(2.0569304520511764,0.7407402518092283)"><g><text fill="rgb(199, 68, 64)" stroke="none" font-family="Symbola, &quot;Times New Roman&quot;, serif" font-size="17.71px" font-style="normal" font-weight="400" text-decoration="normal" x="0" y="13.962119999999999" text-anchor="start">0</text></g></g></g></g><g transform="rotate(0,0,0) translate(339.2726546923265,203.25925974819077)"><g class="dcg-svg-label"><g transform="translate(-1000.2726546923266,-1001.2592597481907)"><g><text fill="none" stroke="#FFF" font-family="Symbola, &quot;Times New Roman&quot;, serif" font-size="17.71px" font-style="normal" font-weight="400" text-decoration="normal" x="0" y="13.962119999999999" text-anchor="start" stroke-linecap="round" stroke-linejoin="round" stroke-miterlimit="2" stroke-width="3" stroke-dasharray="">1</text></g></g><g transform="translate(1.8835953076734882,0.7407402518092283)"><g><text fill="none" stroke="#FFF" font-family="Symbola, &quot;Times New Roman&quot;, serif" font-size="17.71px" font-style="normal" font-weight="400" text-decoration="normal" x="0" y="13.962119999999999" text-anchor="start" stroke-linecap="round" stroke-linejoin="round" stroke-miterlimit="2" stroke-width="3" stroke-dasharray="">1</text></g></g><g transform="translate(-1000.2726546923266,-1001.2592597481907)"><g><text fill="rgb(199, 68, 64)" stroke="none" font-family="Symbola, &quot;Times New Roman&quot;, serif" font-size="17.71px" font-style="normal" font-weight="400" text-decoration="normal" x="0" y="13.962119999999999" text-anchor="start">1</text></g></g><g transform="translate(1.8835953076734882,0.7407402518092283)"><g><text fill="rgb(199, 68, 64)" stroke="none" font-family="Symbola, &quot;Times New Roman&quot;, serif" font-size="17.71px" font-style="normal" font-weight="400" text-decoration="normal" x="0" y="13.962119999999999" text-anchor="start">1</text></g></g></g></g><g transform="rotate(0,0,0) translate(269.68598712013767,184.61356836824976)"><g class="dcg-svg-label"><g transform="translate(-1005.6156746201377,-1022.3166933682497)"><g><text fill="none" stroke="#FFF" font-family="Symbola, &quot;Times New Roman&quot;, serif" font-size="17.71px" font-style="normal" font-weight="400" text-decoration="normal" x="0" y="13.962119999999999" text-anchor="start" stroke-linecap="round" stroke-linejoin="round" stroke-miterlimit="2" stroke-width="3" stroke-dasharray="">nu</text></g></g><g transform="translate(-3.6156746201376677,-22.31669336824976)"><g><text fill="none" stroke="#FFF" font-family="&quot;Times New Roman&quot;, Symbola, serif" font-size="17.71px" font-style="italic" font-weight="400" text-decoration="normal" x="0" y="15.962119999999999" text-anchor="start" stroke-linecap="round" stroke-linejoin="round" stroke-miterlimit="2" stroke-width="3" stroke-dasharray="">ν</text></g></g><g transform="translate(-1005.6156746201377,-1022.3166933682497)"><g><text fill="rgb(0, 0, 0)" stroke="none" font-family="Symbola, &quot;Times New Roman&quot;, serif" font-size="17.71px" font-style="normal" font-weight="400" text-decoration="normal" x="0" y="13.962119999999999" text-anchor="start">nu</text></g></g><g transform="translate(-3.6156746201376677,-22.31669336824976)"><g><text fill="rgb(0, 0, 0)" stroke="none" font-family="&quot;Times New Roman&quot;, Symbola, serif" font-size="17.71px" font-style="italic" font-weight="400" text-decoration="normal" x="0" y="15.962119999999999" text-anchor="start">ν</text></g></g></g></g><g transform="rotate(0,0,0) translate(320.6269633123855,133.6725921760019)"><g class="dcg-svg-label"><g transform="translate(-999.6269633123854,-1022.3757171760019)"><g><text fill="none" stroke="#FFF" font-family="Symbola, &quot;Times New Roman&quot;, serif" font-size="17.71px" font-style="normal" font-weight="400" text-decoration="normal" x="0" y="13.962119999999999" text-anchor="start" stroke-linecap="round" stroke-linejoin="round" stroke-miterlimit="2" stroke-width="3" stroke-dasharray="">varphi</text></g></g><g transform="translate(2.3730366876145013,-22.3757171760019)"><g><text fill="none" stroke="#FFF" font-family="&quot;Times New Roman&quot;, Symbola, serif" font-size="17.71px" font-style="italic" font-weight="400" text-decoration="normal" x="0" y="15.962119999999999" text-anchor="start" stroke-linecap="round" stroke-linejoin="round" stroke-miterlimit="2" stroke-width="3" stroke-dasharray="">φ</text></g></g><g transform="translate(-999.6269633123854,-1022.3757171760019)"><g><text fill="rgb(199, 68, 64)" stroke="none" font-family="Symbola, &quot;Times New Roman&quot;, serif" font-size="17.71px" font-style="normal" font-weight="400" text-decoration="normal" x="0" y="13.962119999999999" text-anchor="start">varphi</text></g></g><g transform="translate(2.3730366876145013,-22.3757171760019)"><g><text fill="rgb(199, 68, 64)" stroke="none" font-family="&quot;Times New Roman&quot;, Symbola, serif" font-size="17.71px" font-style="italic" font-weight="400" text-decoration="normal" x="0" y="15.962119999999999" text-anchor="start">φ</text></g></g></g></g><g transform="rotate(0,0,0) translate(269.6859871201376,82.73161598375404)"><g class="dcg-svg-label"><g transform="translate(-999.6859871201376,-1030.340990983754)"><g><text fill="none" stroke="#FFF" font-family="Symbola, &quot;Times New Roman&quot;, serif" font-size="17.71px" font-style="normal" font-weight="400" text-decoration="normal" x="0" y="13.962119999999999" text-anchor="start" stroke-linecap="round" stroke-linejoin="round" stroke-miterlimit="2" stroke-width="3" stroke-dasharray="">varphi squared</text></g></g><g transform="translate(2.314012879862389,-22.43474098375404)"><g><text fill="none" stroke="#FFF" font-family="&quot;Times New Roman&quot;, Symbola, serif" font-size="17.71px" font-style="italic" font-weight="400" text-decoration="normal" x="0" y="15.962119999999999" text-anchor="start" stroke-linecap="round" stroke-linejoin="round" stroke-miterlimit="2" stroke-width="3" stroke-dasharray="">φ</text></g></g><g transform="translate(12.25151287986239,-27.34099098375404)"><g><text fill="none" stroke="#FFF" font-family="Symbola, &quot;Times New Roman&quot;, serif" font-size="15.939px" font-style="normal" font-weight="400" text-decoration="normal" x="0" y="11.365908" text-anchor="start" stroke-linecap="round" stroke-linejoin="round" stroke-miterlimit="2" stroke-width="3" stroke-dasharray="">2</text></g></g><g transform="translate(-999.6859871201376,-1030.340990983754)"><g><text fill="rgb(199, 68, 64)" stroke="none" font-family="Symbola, &quot;Times New Roman&quot;, serif" font-size="17.71px" font-style="normal" font-weight="400" text-decoration="normal" x="0" y="13.962119999999999" text-anchor="start">varphi squared</text></g></g><g transform="translate(2.314012879862389,-22.43474098375404)"><g><text fill="rgb(199, 68, 64)" stroke="none" font-family="&quot;Times New Roman&quot;, Symbola, serif" font-size="17.71px" font-style="italic" font-weight="400" text-decoration="normal" x="0" y="15.962119999999999" text-anchor="start">φ</text></g></g><g transform="translate(12.25151287986239,-27.34099098375404)"><g><text fill="rgb(199, 68, 64)" stroke="none" font-family="Symbola, &quot;Times New Roman&quot;, serif" font-size="15.939px" font-style="normal" font-weight="400" text-decoration="normal" x="0" y="11.365908" text-anchor="start">2</text></g></g></g></g><g transform="rotate(0,0,0) translate(200.09931954794882,64.08592460381303)"><g class="dcg-svg-label"><g transform="translate(-1011.2008820479489,-1030.695299603813)"><g><text fill="none" stroke="#FFF" font-family="Symbola, &quot;Times New Roman&quot;, serif" font-size="17.71px" font-style="normal" font-weight="400" text-decoration="normal" x="0" y="13.962119999999999" text-anchor="start" stroke-linecap="round" stroke-linejoin="round" stroke-miterlimit="2" stroke-width="3" stroke-dasharray="">varphi cubed</text></g></g><g transform="translate(-9.200882047948824,-22.789049603813027)"><g><text fill="none" stroke="#FFF" font-family="&quot;Times New Roman&quot;, Symbola, serif" font-size="17.71px" font-style="italic" font-weight="400" text-decoration="normal" x="0" y="15.962119999999999" text-anchor="start" stroke-linecap="round" stroke-linejoin="round" stroke-miterlimit="2" stroke-width="3" stroke-dasharray="">φ</text></g></g><g transform="translate(0.7366179520511764,-27.695299603813027)"><g><text fill="none" stroke="#FFF" font-family="Symbola, &quot;Times New Roman&quot;, serif" font-size="15.939px" font-style="normal" font-weight="400" text-decoration="normal" x="0" y="11.365908" text-anchor="start" stroke-linecap="round" stroke-linejoin="round" stroke-miterlimit="2" stroke-width="3" stroke-dasharray="">3</text></g></g><g transform="translate(-1011.2008820479489,-1030.695299603813)"><g><text fill="rgb(199, 68, 64)" stroke="none" font-family="Symbola, &quot;Times New Roman&quot;, serif" font-size="17.71px" font-style="normal" font-weight="400" text-decoration="normal" x="0" y="13.962119999999999" text-anchor="start">varphi cubed</text></g></g><g transform="translate(-9.200882047948824,-22.789049603813027)"><g><text fill="rgb(199, 68, 64)" stroke="none" font-family="&quot;Times New Roman&quot;, Symbola, serif" font-size="17.71px" font-style="italic" font-weight="400" text-decoration="normal" x="0" y="15.962119999999999" text-anchor="start">φ</text></g></g><g transform="translate(0.7366179520511764,-27.695299603813027)"><g><text fill="rgb(199, 68, 64)" stroke="none" font-family="Symbola, &quot;Times New Roman&quot;, serif" font-size="15.939px" font-style="normal" font-weight="400" text-decoration="normal" x="0" y="11.365908" text-anchor="start">3</text></g></g></g></g></g></g></svg>